Mertz Light-bold.ufo
<glyph name="exclam" format="1">
  <advance width="515"/>
  <unicode hex="0021"/>
  <outline>
    <contour>
      <point x="210" y="404" type="line"/>
      <point x="297" y="404" type="line"/>
      <point x="382" y="1241" type="line"/>
      <point x="126" y="1241" type="line"/>
    </contour>
    <component base="period" xOffset="-8"/>
  </outline>
</glyph>
<glyph name="numbersign" format="1">
  <advance width="1163"/>
  <unicode hex="0023"/>
  <outline>
    <contour>
      <point x="123" y="0" type="line"/>
      <point x="277" y="0" type="line"/>
      <point x="613" y="1241" type="line"/>
      <point x="457" y="1241" type="line"/>
    </contour>
    <contour>
      <point x="99" y="399" type="line"/>
      <point x="1027" y="399" type="line"/>
      <point x="1027" y="514" type="line"/>
      <point x="99" y="514" type="line"/>
    </contour>
    <contour>
      <point x="149" y="708" type="line"/>
      <point x="1077" y="708" type="line"/>
      <point x="1077" y="824" type="line"/>
      <point x="149" y="824" type="line"/>
    </contour>
    <contour>
      <point x="558" y="0" type="line"/>
      <point x="712" y="0" type="line"/>
      <point x="1048" y="1241" type="line"/>
      <point x="892" y="1241" type="line"/>
    </contour>
  </outline>
</glyph>
<glyph name="dollar" format="1">
  <advance width="956"/>
  <unicode hex="0024"/>
  <outline>
    <contour>
      <point x="300" y="-177" type="line"/>
      <point x="404" y="-177" type="line"/>
      <point x="692" y="1388" type="line"/>
      <point x="588" y="1388" type="line"/>
    </contour>
    <contour>
      <point x="542" y="-33" type="curve" smooth="yes"/>
      <point x="732" y="-33"/>
      <point x="903" y="76"/>
      <point x="903" y="309" type="curve" smooth="yes"/>
      <point x="903" y="434"/>
      <point x="853" y="546"/>
      <point x="670" y="653" type="curve" smooth="yes"/>
      <point x="420" y="799" type="line" smooth="yes"/>
      <point x="349" y="841"/>
      <point x="319" y="898"/>
      <point x="319" y="944" type="curve" smooth="yes"/>
      <point x="319" y="1004"/>
      <point x="363" y="1079"/>
      <point x="491" y="1079" type="curve" smooth="yes"/>
      <point x="610" y="1079"/>
      <point x="818" y="1010"/>
      <point x="844" y="996" type="curve"/>
      <point x="844" y="1198" type="line" smooth="yes"/>
      <point x="828" y="1210"/>
      <point x="665" y="1276"/>
      <point x="479" y="1276" type="curve" smooth="yes"/>
      <point x="229" y="1276"/>
      <point x="73" y="1118"/>
      <point x="73" y="940" type="curve" smooth="yes"/>
      <point x="73" y="831"/>
      <point x="131" y="717"/>
      <point x="266" y="635" type="curve" smooth="yes"/>
      <point x="548" y="463" type="line" smooth="yes"/>
      <point x="648" y="402"/>
      <point x="663" y="351"/>
      <point x="663" y="304" type="curve" smooth="yes"/>
      <point x="663" y="226"/>
      <point x="614" y="160"/>
      <point x="510" y="160" type="curve" smooth="yes"/>
      <point x="369" y="160"/>
      <point x="130" y="256"/>
      <point x="102" y="275" type="curve"/>
      <point x="102" y="70" type="line"/>
      <point x="117" y="60"/>
      <point x="307" y="-33"/>
    </contour>
  </outline>
</glyph>
<glyph name="percent" format="1">
  <advance width="1522"/>
  <unicode hex="0025"/>
  <outline>
    <contour>
      <point x="295" y="0" type="line"/>
      <point x="504" y="0" type="line"/>
      <point x="1222" y="1241" type="line"/>
      <point x="1011" y="1241" type="line"/>
    </contour>
    <component base="o" xOffset="24" yOffset="711" xScale="0.60" yScale="0.60"/>
    <component base="o" xOffset="825" yOffset="13" xScale="0.60" yScale="0.60"/>
  </outline>
</glyph>
<glyph name="ampersand" format="1">
  <advance width="1256"/>
  <unicode hex="0026"/>
  <outline>
    <contour>
      <point x="518" y="-33" type="curve" smooth="yes"/>
      <point x="859" y="-33"/>
      <point x="1123" y="228"/>
      <point x="1203" y="423" type="curve"/>
      <point x="1056" y="534" type="line"/>
      <point x="958" y="335"/>
      <point x="740" y="157"/>
      <point x="542" y="157" type="curve" smooth="yes"/>
      <point x="369" y="157"/>
      <point x="320" y="268"/>
      <point x="320" y="354" type="curve" smooth="yes"/>
      <point x="320" y="434"/>
      <point x="342" y="540"/>
      <point x="530" y="633" type="curve" smooth="yes"/>
      <point x="792" y="765"/>
      <point x="861" y="879"/>
      <point x="852" y="1029" type="curve" smooth="yes"/>
      <point x="845" y="1154"/>
      <point x="750" y="1272"/>
      <point x="516" y="1272" type="curve" smooth="yes"/>
      <point x="348" y="1272"/>
      <point x="139" y="1202"/>
      <point x="139" y="1001" type="curve" smooth="yes"/>
      <point x="139" y="920"/>
      <point x="173" y="815"/>
      <point x="314" y="682" type="curve" smooth="yes"/>
      <point x="1074" y="-38" type="line"/>
      <point x="1213" y="94" type="line"/>
      <point x="453" y="814" type="line"/>
      <point x="370" y="896"/>
      <point x="344" y="958"/>
      <point x="344" y="993" type="curve" smooth="yes"/>
      <point x="344" y="1101"/>
      <point x="453" y="1119"/>
      <point x="527" y="1119" type="curve" smooth="yes"/>
      <point x="606" y="1119"/>
      <point x="658" y="1067"/>
      <point x="658" y="1008" type="curve" smooth="yes"/>
      <point x="658" y="947"/>
      <point x="634" y="887"/>
      <point x="463" y="810" type="curve" smooth="yes"/>
      <point x="199" y="692"/>
      <point x="93" y="517"/>
      <point x="93" y="325" type="curve" smooth="yes"/>
      <point x="93" y="160"/>
      <point x="239" y="-33"/>
    </contour>
  </outline>
</glyph>
<glyph name="quotesingle" format="1">
  <advance width="421"/>
  <unicode hex="0027"/>
  <outline>
    <contour>
      <point x="187" y="750" type="line"/>
      <point x="235" y="750" type="line"/>
      <point x="279" y="1241" type="line"/>
      <point x="143" y="1241" type="line"/>
    </contour>
  </outline>
</glyph>
<glyph name="parenleft" format="1">
  <advance width="547"/>
  <unicode hex="0028"/>
  <outline>
    <contour>
      <point x="169" y="-68" type="line"/>
      <point x="75" y="135"/>
      <point x="28" y="386"/>
      <point x="28" y="645" type="curve" smooth="yes"/>
      <point x="28" y="903"/>
      <point x="74" y="1153"/>
      <point x="167" y="1355" type="curve"/>
      <point x="414" y="1355" type="line"/>
      <point x="319" y="1138"/>
      <point x="274" y="890"/>
      <point x="274" y="645" type="curve" smooth="yes"/>
      <point x="274" y="400"/>
      <point x="320" y="150"/>
      <point x="415" y="-68" type="curve"/>
    </contour>
  </outline>
</glyph>
<glyph name="asterisk" format="1">
  <advance width="1227"/>
  <unicode hex="002A"/>
  <outline>
    <contour>
      <point x="320" y="471" type="line"/>
      <point x="533" y="757" type="line"/>
      <point x="747" y="471" type="line"/>
      <point x="860" y="570" type="line"/>
      <point x="622" y="820" type="line"/>
      <point x="940" y="929" type="line"/>
      <point x="884" y="1062" type="line"/>
      <point x="586" y="919" type="line"/>
      <point x="612" y="1262" type="line"/>
      <point x="454" y="1262" type="line"/>
      <point x="480" y="919" type="line"/>
      <point x="183" y="1062" type="line"/>
      <point x="127" y="929" type="line"/>
      <point x="445" y="820" type="line"/>
      <point x="206" y="570" type="line"/>
    </contour>
  </outline>
</glyph>
<glyph name="plus" format="1">
  <advance width="960"/>
  <unicode hex="002B"/>
  <outline>
    <contour>
      <point x="416" y="252" type="line"/>
      <point x="582" y="252" type="line"/>
      <point x="582" y="491" type="line"/>
      <point x="821" y="491" type="line"/>
      <point x="821" y="657" type="line"/>
      <point x="582" y="657" type="line"/>
      <point x="582" y="897" type="line"/>
      <point x="416" y="897" type="line"/>
      <point x="416" y="657" type="line"/>
      <point x="176" y="657" type="line"/>
      <point x="176" y="491" type="line"/>
      <point x="416" y="491" type="line"/>
    </contour>
  </outline>
</glyph>
<glyph name="hyphen" format="1">
  <advance width="962"/>
  <unicode hex="002D"/>
  <outline>
    <contour>
      <point x="178" y="475" type="line"/>
      <point x="823" y="475" type="line"/>
      <point x="823" y="678" type="line"/>
      <point x="178" y="678" type="line"/>
    </contour>
  </outline>
</glyph>
<glyph name="period" format="1">
  <advance width="523"/>
  <unicode hex="002E"/>
  <outline>
    <contour>
      <point x="263" y="-16" type="curve" smooth="yes"/>
      <point x="354" y="-16"/>
      <point x="408" y="55"/>
      <point x="408" y="127" type="curve" smooth="yes"/>
      <point x="408" y="196"/>
      <point x="355" y="270"/>
      <point x="263" y="270" type="curve" smooth="yes"/>
      <point x="169" y="270"/>
      <point x="116" y="197"/>
      <point x="116" y="127" type="curve" smooth="yes"/>
      <point x="116" y="54"/>
      <point x="170" y="-16"/>
    </contour>
  </outline>
</glyph>
<glyph name="slash" format="1">
  <advance width="232"/>
  <unicode hex="002F"/>
  <outline>
    <contour>
      <point x="115" y="0" type="line"/>
      <point x="335" y="0" type="line"/>
      <point x="886" y="1241" type="line"/>
      <point x="664" y="1241" type="line"/>
    </contour>
  </outline>
</glyph>
<glyph name="zero" format="1">
  <advance width="1239"/>
  <unicode hex="0030"/>
  <outline>
    <contour>
      <point x="620" y="182" type="curve" smooth="yes"/>
      <point x="438" y="182"/>
      <point x="312" y="276"/>
      <point x="312" y="626" type="curve" smooth="yes"/>
      <point x="312" y="972"/>
      <point x="438" y="1060"/>
      <point x="620" y="1060" type="curve" smooth="yes"/>
      <point x="803" y="1060"/>
      <point x="928" y="971"/>
      <point x="928" y="626" type="curve" smooth="yes"/>
      <point x="928" y="276"/>
      <point x="803" y="182"/>
    </contour>
    <contour>
      <point x="620" y="-33" type="curve" smooth="yes"/>
      <point x="999" y="-33"/>
      <point x="1174" y="198"/>
      <point x="1174" y="622" type="curve" smooth="yes"/>
      <point x="1174" y="1067"/>
      <point x="990" y="1275"/>
      <point x="620" y="1275" type="curve" smooth="yes"/>
      <point x="250" y="1275"/>
      <point x="65" y="1067"/>
      <point x="65" y="622" type="curve" smooth="yes"/>
      <point x="65" y="198"/>
      <point x="241" y="-33"/>
    </contour>
  </outline>
</glyph>
<glyph name="one" format="1">
  <advance width="699"/>
  <unicode hex="0031"/>
  <outline>
    <contour>
      <point x="297" y="0" type="line"/>
      <point x="553" y="0" type="line"/>
      <point x="553" y="1282" type="line"/>
      <point x="553" y="1282"/>
      <point x="157" y="1070"/>
      <point x="48" y="1029" type="curve"/>
      <point x="48" y="805" type="line"/>
      <point x="155" y="837"/>
      <point x="227" y="864"/>
      <point x="297" y="903" type="curve"/>
    </contour>
  </outline>
</glyph>
<glyph name="two" format="1">
  <advance width="986"/>
  <unicode hex="0032"/>
  <outline>
    <contour>
      <point x="30" y="0" type="line"/>
      <point x="861" y="0" type="line"/>
      <point x="861" y="211" type="line"/>
      <point x="466" y="211" type="line"/>
      <point x="677" y="488" type="line" smooth="yes"/>
      <point x="787" y="633"/>
      <point x="864" y="769"/>
      <point x="864" y="904" type="curve" smooth="yes"/>
      <point x="864" y="1118"/>
      <point x="723" y="1275"/>
      <point x="481" y="1275" type="curve" smooth="yes"/>
      <point x="307" y="1275"/>
      <point x="122" y="1160"/>
      <point x="104" y="1144" type="curve"/>
      <point x="186" y="962" type="line"/>
      <point x="201" y="974"/>
      <point x="344" y="1060"/>
      <point x="455" y="1060" type="curve" smooth="yes"/>
      <point x="545" y="1060"/>
      <point x="613" y="1007"/>
      <point x="613" y="907" type="curve" smooth="yes"/>
      <point x="613" y="827"/>
      <point x="571" y="745"/>
      <point x="499" y="648" type="curve"/>
    </contour>
  </outline>
</glyph>
<glyph name="three" format="1">
  <advance width="978"/>
  <unicode hex="0033"/>
  <outline>
    <contour>
      <point x="480" y="-35" type="curve" smooth="yes"/>
      <point x="738" y="-35"/>
      <point x="894" y="115"/>
      <point x="894" y="309" type="curve" smooth="yes"/>
      <point x="894" y="489"/>
      <point x="790" y="596"/>
      <point x="640" y="658" type="curve"/>
      <point x="769" y="708"/>
      <point x="860" y="808"/>
      <point x="860" y="938" type="curve" smooth="yes"/>
      <point x="860" y="1143"/>
      <point x="697" y="1276"/>
      <point x="483" y="1276" type="curve" smooth="yes"/>
      <point x="357" y="1276"/>
      <point x="191" y="1240"/>
      <point x="91" y="1175" type="curve"/>
      <point x="153" y="994" type="line"/>
      <point x="262" y="1046"/>
      <point x="366" y="1068"/>
      <point x="440" y="1068" type="curve" smooth="yes"/>
      <point x="561" y="1068"/>
      <point x="623" y="1002"/>
      <point x="623" y="919" type="curve" smooth="yes"/>
      <point x="623" y="816"/>
      <point x="507" y="735"/>
      <point x="296" y="686" type="curve"/>
      <point x="296" y="594" type="line"/>
      <point x="523" y="535"/>
      <point x="640" y="472"/>
      <point x="640" y="341" type="curve" smooth="yes"/>
      <point x="640" y="234"/>
      <point x="550" y="173"/>
      <point x="445" y="173" type="curve" smooth="yes"/>
      <point x="345" y="173"/>
      <point x="243" y="196"/>
      <point x="152" y="242" type="curve"/>
      <point x="101" y="49" type="line"/>
      <point x="125" y="35"/>
      <point x="292" y="-35"/>
    </contour>
  </outline>
</glyph>
<glyph name="four" format="1">
  <advance width="1165"/>
  <unicode hex="0034"/>
  <outline>
    <contour>
      <point x="645" y="0" type="line"/>
      <point x="902" y="0" type="line"/>
      <point x="902" y="241" type="line"/>
      <point x="1092" y="241" type="line"/>
      <point x="1092" y="426" type="line"/>
      <point x="902" y="426" type="line"/>
      <point x="902" y="1268" type="line"/>
      <point x="40" y="241" type="line"/>
      <point x="645" y="241" type="line"/>
    </contour>
    <contour>
      <point x="416" y="426" type="line"/>
      <point x="645" y="744" type="line"/>
      <point x="645" y="426" type="line"/>
    </contour>
  </outline>
</glyph>
<glyph name="five" format="1">
  <advance width="1011"/>
  <unicode hex="0035"/>
  <outline>
    <contour>
      <point x="506" y="-35" type="curve" smooth="yes"/>
      <point x="831" y="-35"/>
      <point x="934" y="169"/>
      <point x="934" y="345" type="curve" smooth="yes"/>
      <point x="934" y="611"/>
      <point x="758" y="763"/>
      <point x="543" y="763" type="curve" smooth="yes"/>
      <point x="493" y="763"/>
      <point x="425" y="749"/>
      <point x="374" y="729" type="curve"/>
      <point x="377" y="832"/>
      <point x="380" y="939"/>
      <point x="385" y="1040" type="curve"/>
      <point x="830" y="1040" type="line"/>
      <point x="851" y="1242" type="line"/>
      <point x="185" y="1242" type="line"/>
      <point x="164" y="552" type="line"/>
      <point x="332" y="504" type="line"/>
      <point x="368" y="544"/>
      <point x="436" y="566"/>
      <point x="499" y="566" type="curve" smooth="yes"/>
      <point x="605" y="566"/>
      <point x="682" y="482"/>
      <point x="682" y="371" type="curve" smooth="yes"/>
      <point x="682" y="269"/>
      <point x="616" y="183"/>
      <point x="486" y="183" type="curve" smooth="yes"/>
      <point x="353" y="183"/>
      <point x="221" y="241"/>
      <point x="158" y="282" type="curve"/>
      <point x="107" y="82" type="line"/>
      <point x="165" y="39"/>
      <point x="332" y="-35"/>
    </contour>
  </outline>
</glyph>
<glyph name="seven" format="1">
  <advance width="1001"/>
  <unicode hex="0037"/>
  <outline>
    <contour>
      <point x="214" y="0" type="line"/>
      <point x="483" y="0" type="line"/>
      <point x="870" y="1055" type="line"/>
      <point x="870" y="1241" type="line"/>
      <point x="143" y="1241" type="line"/>
      <point x="143" y="1020" type="line"/>
      <point x="594" y="1020" type="line"/>
    </contour>
  </outline>
</glyph>
<glyph name="eight" format="1">
  <advance width="1105"/>
  <unicode hex="0038"/>
  <outline>
    <contour>
      <point x="559" y="-33" type="curve" smooth="yes"/>
      <point x="794" y="-33"/>
      <point x="984" y="83"/>
      <point x="984" y="305" type="curve" smooth="yes"/>
      <point x="984" y="452"/>
      <point x="907" y="556"/>
      <point x="751" y="650" type="curve"/>
      <point x="891" y="729"/>
      <point x="960" y="836"/>
      <point x="960" y="950" type="curve" smooth="yes"/>
      <point x="960" y="1155"/>
      <point x="779" y="1277"/>
      <point x="553" y="1277" type="curve" smooth="yes"/>
      <point x="319" y="1277"/>
      <point x="154" y="1128"/>
      <point x="154" y="949" type="curve" smooth="yes"/>
      <point x="154" y="834"/>
      <point x="236" y="721"/>
      <point x="358" y="648" type="curve"/>
      <point x="218" y="560"/>
      <point x="130" y="446"/>
      <point x="130" y="298" type="curve" smooth="yes"/>
      <point x="130" y="79"/>
      <point x="339" y="-33"/>
    </contour>
    <contour>
      <point x="546" y="716" type="curve"/>
      <point x="428" y="754"/>
      <point x="359" y="841"/>
      <point x="359" y="942" type="curve" smooth="yes"/>
      <point x="359" y="1037"/>
      <point x="443" y="1098"/>
      <point x="554" y="1098" type="curve" smooth="yes"/>
      <point x="665" y="1098"/>
      <point x="753" y="1036"/>
      <point x="753" y="942" type="curve" smooth="yes"/>
      <point x="753" y="852"/>
      <point x="689" y="763"/>
    </contour>
    <contour>
      <point x="554" y="146" type="curve" smooth="yes"/>
      <point x="438" y="146"/>
      <point x="346" y="210"/>
      <point x="346" y="328" type="curve" smooth="yes"/>
      <point x="346" y="438"/>
      <point x="411" y="533"/>
      <point x="553" y="587" type="curve"/>
      <point x="689" y="542"/>
      <point x="774" y="435"/>
      <point x="774" y="334" type="curve" smooth="yes"/>
      <point x="774" y="206"/>
      <point x="674" y="146"/>
    </contour>
  </outline>
</glyph>
<glyph name="nine" format="1">
  <advance width="1114"/>
  <unicode hex="0039"/>
  <outline>
    <contour>
      <point x="236" y="0" type="line"/>
      <point x="509" y="0" type="line"/>
      <point x="509" y="0"/>
      <point x="762" y="314"/>
      <point x="838" y="419" type="curve" smooth="yes"/>
      <point x="959" y="585"/>
      <point x="1017" y="699"/>
      <point x="1017" y="863" type="curve" smooth="yes"/>
      <point x="1017" y="1093"/>
      <point x="830" y="1275"/>
      <point x="569" y="1275" type="curve" smooth="yes"/>
      <point x="321" y="1275"/>
      <point x="119" y="1117"/>
      <point x="119" y="867" type="curve" smooth="yes"/>
      <point x="119" y="629"/>
      <point x="309" y="476"/>
      <point x="516" y="476" type="curve" smooth="yes"/>
      <point x="547" y="476"/>
      <point x="592" y="483"/>
      <point x="620" y="495" type="curve"/>
    </contour>
    <contour>
      <point x="569" y="661" type="curve" smooth="yes"/>
      <point x="431" y="661"/>
      <point x="354" y="755"/>
      <point x="354" y="867" type="curve" smooth="yes"/>
      <point x="354" y="976"/>
      <point x="434" y="1079"/>
      <point x="575" y="1079" type="curve" smooth="yes"/>
      <point x="716" y="1079"/>
      <point x="786" y="981"/>
      <point x="786" y="873" type="curve" smooth="yes"/>
      <point x="786" y="764"/>
      <point x="715" y="661"/>
    </contour>
  </outline>
</glyph>
<glyph name="less" format="1">
  <advance width="1016"/>
  <unicode hex="003C"/>
  <outline>
    <contour>
      <point x="950" y="-56" type="line"/>
      <point x="950" y="201" type="line"/>
      <point x="479" y="415" type="line"/>
      <point x="950" y="633" type="line"/>
      <point x="950" y="889" type="line"/>
      <point x="61" y="415" type="line"/>
    </contour>
  </outline>
</glyph>
<glyph name="equal" format="1">
  <advance width="1161"/>
  <unicode hex="003D"/>
  <outline>
    <contour>
      <point x="200" y="325" type="line"/>
      <point x="928" y="325" type="line"/>
      <point x="928" y="472" type="line"/>
      <point x="200" y="472" type="line"/>
    </contour>
    <contour>
      <point x="200" y="648" type="line"/>
      <point x="928" y="648" type="line"/>
      <point x="928" y="795" type="line"/>
      <point x="200" y="795" type="line"/>
    </contour>
  </outline>
</glyph>
<glyph name="greater" format="1">
  <advance width="1016"/>
  <unicode hex="003E"/>
  <outline>
    <contour>
      <point x="66" y="-56" type="line"/>
      <point x="956" y="418" type="line"/>
      <point x="66" y="889" type="line"/>
      <point x="66" y="632" type="line"/>
      <point x="537" y="419" type="line"/>
      <point x="66" y="200" type="line"/>
    </contour>
  </outline>
</glyph>
<glyph name="question" format="1">
  <advance width="1026"/>
  <unicode hex="003F"/>
  <outline>
    <contour>
      <point x="299" y="394" type="curve"/>
      <point x="482" y="394" type="line"/>
      <point x="792" y="656"/>
      <point x="899" y="798"/>
      <point x="899" y="948" type="curve" smooth="yes"/>
      <point x="899" y="1149"/>
      <point x="754" y="1275"/>
      <point x="521" y="1275" type="curve" smooth="yes"/>
      <point x="347" y="1275"/>
      <point x="171" y="1167"/>
      <point x="154" y="1151" type="curve"/>
      <point x="237" y="972" type="line"/>
      <point x="258" y="988"/>
      <point x="390" y="1060"/>
      <point x="494" y="1060" type="curve" smooth="yes"/>
      <point x="582" y="1060"/>
      <point x="647" y="1010"/>
      <point x="647" y="912" type="curve" smooth="yes"/>
      <point x="647" y="808"/>
      <point x="587" y="722"/>
    </contour>
    <component base="period" xOffset="112"/>
  </outline>
</glyph>
<glyph name="at" format="1">
  <advance width="1474"/>
  <unicode hex="0040"/>
  <outline>
    <contour>
      <point x="735" y="-109" type="curve" smooth="yes"/>
      <point x="977" y="-109"/>
      <point x="1157" y="-22"/>
      <point x="1250" y="33" type="curve"/>
      <point x="1215" y="158" type="line"/>
      <point x="1124" y="105"/>
      <point x="947" y="32"/>
      <point x="748" y="32" type="curve" smooth="yes"/>
      <point x="438" y="32"/>
      <point x="203" y="194"/>
      <point x="203" y="533" type="curve" smooth="yes"/>
      <point x="203" y="778"/>
      <point x="350" y="1079"/>
      <point x="792" y="1079" type="curve" smooth="yes"/>
      <point x="1042" y="1079"/>
      <point x="1237" y="916"/>
      <point x="1237" y="618" type="curve" smooth="yes"/>
      <point x="1237" y="400"/>
      <point x="1154" y="324"/>
      <point x="1079" y="324" type="curve" smooth="yes"/>
      <point x="998" y="324"/>
      <point x="998" y="423"/>
      <point x="998" y="503" type="curve" smooth="yes"/>
      <point x="998" y="932" type="line"/>
      <point x="956" y="936"/>
      <point x="905" y="938"/>
      <point x="869" y="938" type="curve" smooth="yes"/>
      <point x="408" y="938"/>
      <point x="366" y="619"/>
      <point x="372" y="494" type="curve" smooth="yes"/>
      <point x="381" y="319"/>
      <point x="499" y="204"/>
      <point x="636" y="204" type="curve" smooth="yes"/>
      <point x="718" y="204"/>
      <point x="817" y="250"/>
      <point x="872" y="374" type="curve"/>
      <point x="896" y="250"/>
      <point x="981" y="203"/>
      <point x="1067" y="203" type="curve" smooth="yes"/>
      <point x="1218" y="203"/>
      <point x="1395" y="357"/>
      <point x="1395" y="636" type="curve" smooth="yes"/>
      <point x="1395" y="935"/>
      <point x="1180" y="1218"/>
      <point x="777" y="1218" type="curve" smooth="yes"/>
      <point x="252" y="1218"/>
      <point x="34" y="847"/>
      <point x="34" y="533" type="curve" smooth="yes"/>
      <point x="34" y="125"/>
      <point x="357" y="-109"/>
    </contour>
    <contour>
      <point x="673" y="337" type="curve" smooth="yes"/>
      <point x="597" y="331"/>
      <point x="541" y="383"/>
      <point x="533" y="481" type="curve" smooth="yes"/>
      <point x="523" y="610"/>
      <point x="569" y="808"/>
      <point x="847" y="808" type="curve"/>
      <point x="847" y="468" type="line"/>
      <point x="818" y="403"/>
      <point x="744" y="342"/>
    </contour>
  </outline>
</glyph>
<glyph name="A" format="1">
  <advance width="1284"/>
  <unicode hex="0041"/>
  <outline>
    <contour>
      <point x="64" y="0" type="line"/>
      <point x="332" y="0" type="line"/>
      <point x="457" y="293" type="line"/>
      <point x="852" y="293" type="line"/>
      <point x="985" y="0" type="line"/>
      <point x="1249" y="0" type="line"/>
      <point x="649" y="1296" type="line"/>
    </contour>
    <contour>
      <point x="506" y="450" type="line"/>
      <point x="651" y="815" type="line"/>
      <point x="805" y="450" type="line"/>
    </contour>
    <contour>
      <point x="642" y="1241" type="move" name="top"/>
    </contour>
    <contour>
      <point x="1156" y="10" type="move" name="ogonek"/>
    </contour>
  </outline>
</glyph>
<glyph name="B" format="1">
  <advance width="1105"/>
  <unicode hex="0042"/>
  <outline>
    <contour>
      <point x="145" y="0" type="line"/>
      <point x="527" y="0" type="line" smooth="yes"/>
      <point x="817" y="0"/>
      <point x="1021" y="117"/>
      <point x="1021" y="373" type="curve" smooth="yes"/>
      <point x="1021" y="555"/>
      <point x="902" y="643"/>
      <point x="780" y="694" type="curve"/>
      <point x="883" y="729"/>
      <point x="950" y="815"/>
      <point x="950" y="925" type="curve" smooth="yes"/>
      <point x="950" y="1137"/>
      <point x="797" y="1241"/>
      <point x="495" y="1241" type="curve" smooth="yes"/>
      <point x="145" y="1241" type="line"/>
    </contour>
    <contour>
      <point x="395" y="169" type="line"/>
      <point x="395" y="604" type="line"/>
      <point x="506" y="604" type="line" smooth="yes"/>
      <point x="675" y="604"/>
      <point x="783" y="511"/>
      <point x="783" y="381" type="curve" smooth="yes"/>
      <point x="783" y="257"/>
      <point x="703" y="169"/>
      <point x="507" y="169" type="curve" smooth="yes"/>
    </contour>
    <contour>
      <point x="397" y="752" type="line"/>
      <point x="397" y="1073" type="line"/>
      <point x="476" y="1073" type="line" smooth="yes"/>
      <point x="657" y="1073"/>
      <point x="737" y="1032"/>
      <point x="737" y="912" type="curve" smooth="yes"/>
      <point x="737" y="762"/>
      <point x="562" y="752"/>
      <point x="466" y="752" type="curve" smooth="yes"/>
    </contour>
  </outline>
</glyph>
<glyph name="C" format="1">
  <advance width="1287"/>
  <unicode hex="0043"/>
  <outline>
    <contour>
      <point x="757" y="-33" type="curve" smooth="yes"/>
      <point x="969" y="-33"/>
      <point x="1152" y="55"/>
      <point x="1171" y="65" type="curve"/>
      <point x="1171" y="302" type="line"/>
      <point x="1062" y="229"/>
      <point x="915" y="183"/>
      <point x="781" y="183" type="curve" smooth="yes"/>
      <point x="538" y="183"/>
      <point x="339" y="319"/>
      <point x="339" y="622" type="curve" smooth="yes"/>
      <point x="339" y="926"/>
      <point x="538" y="1058"/>
      <point x="779" y="1058" type="curve" smooth="yes"/>
      <point x="919" y="1058"/>
      <point x="1062" y="1011"/>
      <point x="1171" y="938" type="curve"/>
      <point x="1171" y="1173" type="line"/>
      <point x="1153" y="1184"/>
      <point x="969" y="1275"/>
      <point x="757" y="1275" type="curve" smooth="yes"/>
      <point x="369" y="1275"/>
      <point x="81" y="1027"/>
      <point x="81" y="622" type="curve" smooth="yes"/>
      <point x="81" y="218"/>
      <point x="366" y="-33"/>
    </contour>
    <contour>
      <point x="644" y="1241" type="move" name="top"/>
    </contour>
    <contour>
      <point x="644" y="0" type="move" name="bottom"/>
    </contour>
  </outline>
</glyph>
<glyph name="E" format="1">
  <advance width="973"/>
  <unicode hex="0045"/>
  <outline>
    <contour>
      <point x="155" y="0" type="line"/>
      <point x="887" y="0" type="line"/>
      <point x="887" y="220" type="line"/>
      <point x="400" y="220" type="line"/>
      <point x="400" y="534" type="line"/>
      <point x="812" y="534" type="line"/>
      <point x="812" y="744" type="line"/>
      <point x="402" y="744" type="line"/>
      <point x="402" y="1028" type="line"/>
      <point x="877" y="1028" type="line"/>
      <point x="877" y="1241" type="line"/>
      <point x="155" y="1241" type="line"/>
    </contour>
    <contour>
      <point x="487" y="1241" type="move" name="top"/>
    </contour>
    <contour>
      <point x="876" y="10" type="move" name="ogonek"/>
    </contour>
    <contour>
      <point x="487" y="0" type="move" name="bottom"/>
    </contour>
  </outline>
</glyph>
<glyph name="F" format="1">
  <advance width="931"/>
  <unicode hex="0046"/>
  <outline>
    <contour>
      <point x="155" y="0" type="line"/>
      <point x="400" y="0" type="line"/>
      <point x="400" y="531" type="line"/>
      <point x="784" y="531" type="line"/>
      <point x="784" y="741" type="line"/>
      <point x="402" y="741" type="line"/>
      <point x="402" y="1028" type="line"/>
      <point x="850" y="1028" type="line"/>
      <point x="850" y="1241" type="line"/>
      <point x="155" y="1241" type="line"/>
    </contour>
  </outline>
</glyph>
<glyph name="H" format="1">
  <advance width="1322"/>
  <unicode hex="0048"/>
  <outline>
    <contour>
      <point x="145" y="0" type="line"/>
      <point x="401" y="0" type="line"/>
      <point x="401" y="542" type="line"/>
      <point x="920" y="542" type="line"/>
      <point x="920" y="0" type="line"/>
      <point x="1176" y="0" type="line"/>
      <point x="1176" y="1241" type="line"/>
      <point x="920" y="1241" type="line"/>
      <point x="920" y="762" type="line"/>
      <point x="401" y="762" type="line"/>
      <point x="401" y="1241" type="line"/>
      <point x="145" y="1241" type="line"/>
    </contour>
    <contour>
      <point x="661" y="1241" type="move" name="top"/>
    </contour>
    <contour>
      <point x="661" y="621" type="move" name="center"/>
    </contour>
  </outline>
</glyph>
<glyph name="I" format="1">
  <advance width="586"/>
  <unicode hex="0049"/>
  <outline>
    <contour>
      <point x="173" y="0" type="line"/>
      <point x="429" y="0" type="line"/>
      <point x="429" y="1241" type="line"/>
      <point x="173" y="1241" type="line"/>
    </contour>
    <contour>
      <point x="293" y="1241" type="move" name="top"/>
    </contour>
    <contour>
      <point x="527" y="10" type="move" name="ogonek"/>
    </contour>
  </outline>
</glyph>
<glyph name="J" format="1">
  <advance width="988"/>
  <unicode hex="004A"/>
  <outline>
    <contour>
      <point x="381" y="-26" type="curve" smooth="yes"/>
      <point x="690" y="-26"/>
      <point x="827" y="140"/>
      <point x="827" y="479" type="curve" smooth="yes"/>
      <point x="827" y="1241" type="line"/>
      <point x="582" y="1241" type="line"/>
      <point x="582" y="483" type="line" smooth="yes"/>
      <point x="582" y="260"/>
      <point x="513" y="169"/>
      <point x="359" y="169" type="curve" smooth="yes"/>
      <point x="244" y="169"/>
      <point x="135" y="236"/>
      <point x="107" y="249" type="curve"/>
      <point x="107" y="42" type="line"/>
      <point x="116" y="37"/>
      <point x="196" y="-26"/>
    </contour>
    <contour>
      <point x="494" y="1241" type="move" name="top"/>
    </contour>
  </outline>
</glyph>
<glyph name="K" format="1">
  <advance width="1219"/>
  <unicode hex="004B"/>
  <outline>
    <contour>
      <point x="145" y="0" type="line"/>
      <point x="397" y="0" type="line"/>
      <point x="397" y="583" type="line"/>
      <point x="882" y="0" type="line"/>
      <point x="1188" y="0" type="line"/>
      <point x="652" y="637" type="line"/>
      <point x="1156" y="1241" type="line"/>
      <point x="859" y="1241" type="line"/>
      <point x="395" y="687" type="line"/>
      <point x="395" y="1242" type="line"/>
      <point x="145" y="1242" type="line"/>
    </contour>
    <contour>
      <point x="610" y="1241" type="move" name="top"/>
    </contour>
    <contour>
      <point x="610" y="0" type="move" name="bottom"/>
    </contour>
  </outline>
</glyph>
<glyph name="L" format="1">
  <advance width="1009"/>
  <unicode hex="004C"/>
  <outline>
    <contour>
      <point x="155" y="0" type="line"/>
      <point x="914" y="0" type="line"/>
      <point x="914" y="221" type="line"/>
      <point x="411" y="221" type="line"/>
      <point x="411" y="1241" type="line"/>
      <point x="155" y="1241" type="line"/>
    </contour>
    <contour>
      <point x="505" y="1241" type="move" name="top"/>
    </contour>
    <contour>
      <point x="505" y="0" type="move" name="bottom"/>
    </contour>
  </outline>
</glyph>
<glyph name="N" format="1">
  <advance width="1350"/>
  <unicode hex="004E"/>
  <outline>
    <contour>
      <point x="1204" y="-50" type="line"/>
      <point x="1204" y="1241" type="line"/>
      <point x="948" y="1241" type="line"/>
      <point x="948" y="507" type="line"/>
      <point x="145" y="1297" type="line"/>
      <point x="145" y="0" type="line"/>
      <point x="401" y="0" type="line"/>
      <point x="401" y="733" type="line"/>
    </contour>
    <contour>
      <point x="675" y="1241" type="move" name="top"/>
    </contour>
    <contour>
      <point x="675" y="0" type="move" name="bottom"/>
    </contour>
  </outline>
</glyph>
<glyph name="O" format="1">
  <advance width="1509"/>
  <unicode hex="004F"/>
  <outline>
    <contour>
      <point x="746" y="182" type="curve" smooth="yes"/>
      <point x="541" y="182"/>
      <point x="340" y="328"/>
      <point x="340" y="620" type="curve" smooth="yes"/>
      <point x="340" y="912"/>
      <point x="537" y="1060"/>
      <point x="746" y="1060" type="curve" smooth="yes"/>
      <point x="955" y="1060"/>
      <point x="1154" y="912"/>
      <point x="1154" y="619" type="curve" smooth="yes"/>
      <point x="1154" y="329"/>
      <point x="947" y="182"/>
    </contour>
    <contour>
      <point x="747" y="-33" type="curve" smooth="yes"/>
      <point x="1080" y="-33"/>
      <point x="1412" y="184"/>
      <point x="1412" y="624" type="curve" smooth="yes"/>
      <point x="1412" y="1058"/>
      <point x="1080" y="1275"/>
      <point x="746" y="1275" type="curve" smooth="yes"/>
      <point x="412" y="1275"/>
      <point x="81" y="1058"/>
      <point x="81" y="620" type="curve" smooth="yes"/>
      <point x="81" y="184"/>
      <point x="412" y="-33"/>
    </contour>
    <contour>
      <point x="755" y="1241" type="move" name="top"/>
    </contour>
  </outline>
</glyph>
<glyph name="Q" format="1">
  <advance width="1509"/>
  <unicode hex="0051"/>
  <outline>
    <contour>
      <point x="1263" y="-186" type="line"/>
      <point x="1422" y="-64" type="line"/>
      <point x="911" y="397" type="line"/>
      <point x="827" y="311" type="line"/>
    </contour>
    <component base="O"/>
  </outline>
</glyph>
<glyph name="R" format="1">
  <advance width="1129"/>
  <unicode hex="0052"/>
  <outline>
    <contour>
      <point x="161" y="0" type="line"/>
      <point x="413" y="0" type="line"/>
      <point x="413" y="537" type="line"/>
      <point x="426" y="537" type="line"/>
      <point x="818" y="0" type="line"/>
      <point x="1108" y="0" type="line"/>
      <point x="665" y="575" type="line"/>
      <point x="860" y="608"/>
      <point x="975" y="720"/>
      <point x="975" y="888" type="curve" smooth="yes"/>
      <point x="975" y="1137"/>
      <point x="769" y="1242"/>
      <point x="503" y="1242" type="curve" smooth="yes"/>
      <point x="161" y="1242" type="line"/>
    </contour>
    <contour>
      <point x="411" y="676" type="line"/>
      <point x="411" y="1074" type="line"/>
      <point x="472" y="1074" type="line" smooth="yes"/>
      <point x="655" y="1074"/>
      <point x="735" y="1000"/>
      <point x="735" y="883" type="curve" smooth="yes"/>
      <point x="735" y="746"/>
      <point x="612" y="676"/>
      <point x="461" y="676" type="curve" smooth="yes"/>
    </contour>
    <contour>
      <point x="565" y="1241" type="move" name="top"/>
    </contour>
    <contour>
      <point x="565" y="0" type="move" name="bottom"/>
    </contour>
  </outline>
</glyph>
<glyph name="S" format="1">
  <advance width="956"/>
  <unicode hex="0053"/>
  <outline>
    <contour>
      <point x="513" y="-33" type="curve" smooth="yes"/>
      <point x="703" y="-33"/>
      <point x="874" y="76"/>
      <point x="874" y="309" type="curve" smooth="yes"/>
      <point x="874" y="434"/>
      <point x="807" y="539"/>
      <point x="648" y="653" type="curve" smooth="yes"/>
      <point x="442" y="799" type="line" smooth="yes"/>
      <point x="375" y="847"/>
      <point x="340" y="898"/>
      <point x="340" y="944" type="curve" smooth="yes"/>
      <point x="340" y="1004"/>
      <point x="377" y="1067"/>
      <point x="505" y="1067" type="curve" smooth="yes"/>
      <point x="625" y="1067"/>
      <point x="789" y="992"/>
      <point x="816" y="978" type="curve"/>
      <point x="816" y="1191" type="line" smooth="yes"/>
      <point x="799" y="1204"/>
      <point x="658" y="1276"/>
      <point x="472" y="1276" type="curve" smooth="yes"/>
      <point x="221" y="1276"/>
      <point x="95" y="1116"/>
      <point x="95" y="937" type="curve" smooth="yes"/>
      <point x="95" y="828"/>
      <point x="161" y="714"/>
      <point x="273" y="635" type="curve" smooth="yes"/>
      <point x="518" y="463" type="line" smooth="yes"/>
      <point x="615" y="396"/>
      <point x="633" y="351"/>
      <point x="633" y="304" type="curve" smooth="yes"/>
      <point x="633" y="226"/>
      <point x="585" y="176"/>
      <point x="481" y="176" type="curve" smooth="yes"/>
      <point x="339" y="176"/>
      <point x="151" y="286"/>
      <point x="123" y="305" type="curve" smooth="yes"/>
      <point x="123" y="84" type="line" smooth="yes"/>
      <point x="139" y="74"/>
      <point x="277" y="-33"/>
    </contour>
    <contour>
      <point x="478" y="1241" type="move" name="top"/>
    </contour>
    <contour>
      <point x="478" y="0" type="move" name="bottom"/>
    </contour>
  </outline>
</glyph>
<glyph name="T" format="1">
  <advance width="1122"/>
  <unicode hex="0054"/>
  <outline>
    <contour>
      <point x="429" y="0" type="line"/>
      <point x="685" y="0" type="line"/>
      <point x="685" y="1020" type="line"/>
      <point x="1059" y="1020" type="line"/>
      <point x="1059" y="1241" type="line"/>
      <point x="55" y="1241" type="line"/>
      <point x="55" y="1020" type="line"/>
      <point x="429" y="1020" type="line"/>
    </contour>
    <contour>
      <point x="561" y="1241" type="move" name="top"/>
    </contour>
    <contour>
      <point x="561" y="621" type="move" name="center"/>
    </contour>
    <contour>
      <point x="561" y="0" type="move" name="bottom"/>
    </contour>
  </outline>
</glyph>
<glyph name="U" format="1">
  <advance width="1402"/>
  <unicode hex="0055"/>
  <outline>
    <contour>
      <point x="690" y="-33" type="curve" smooth="yes"/>
      <point x="1007" y="-33"/>
      <point x="1252" y="142"/>
      <point x="1252" y="493" type="curve" smooth="yes"/>
      <point x="1252" y="1241" type="line"/>
      <point x="1007" y="1241" type="line"/>
      <point x="1007" y="494" type="line" smooth="yes"/>
      <point x="1007" y="264"/>
      <point x="877" y="165"/>
      <point x="690" y="165" type="curve" smooth="yes"/>
      <point x="503" y="165"/>
      <point x="373" y="264"/>
      <point x="373" y="494" type="curve" smooth="yes"/>
      <point x="373" y="1241" type="line"/>
      <point x="128" y="1241" type="line"/>
      <point x="128" y="493" type="line" smooth="yes"/>
      <point x="128" y="142"/>
      <point x="373" y="-33"/>
    </contour>
    <contour>
      <point x="701" y="1241" type="move" name="top"/>
    </contour>
    <contour>
      <point x="1262" y="10" type="move" name="ogonek"/>
    </contour>
  </outline>
</glyph>
<glyph name="V" format="1">
  <advance width="1263"/>
  <unicode hex="0056"/>
  <outline>
    <contour>
      <point x="641" y="-46" type="line"/>
      <point x="1230" y="1241" type="line"/>
      <point x="964" y="1241" type="line"/>
      <point x="639" y="473" type="line"/>
      <point x="289" y="1241" type="line"/>
      <point x="29" y="1241" type="line"/>
    </contour>
  </outline>
</glyph>
<glyph name="W" format="1">
  <advance width="1757"/>
  <unicode hex="0057"/>
  <outline>
    <contour>
      <point x="529" y="-47" type="line"/>
      <point x="855" y="726" type="line"/>
      <point x="1197" y="-47" type="line"/>
      <point x="1703" y="1241" type="line"/>
      <point x="1445" y="1241" type="line"/>
      <point x="1179" y="531" type="line"/>
      <point x="847" y="1285" type="line"/>
      <point x="539" y="531" type="line"/>
      <point x="249" y="1241" type="line"/>
      <point x="-3" y="1241" type="line"/>
    </contour>
    <contour>
      <point x="879" y="1241" type="move" name="top"/>
    </contour>
  </outline>
</glyph>
<glyph name="X" format="1">
  <advance width="1519"/>
  <unicode hex="0058"/>
  <outline>
    <contour>
      <point x="1172" y="0" type="line"/>
      <point x="1474" y="0" type="line"/>
      <point x="397" y="1241" type="line"/>
      <point x="104" y="1241" type="line"/>
    </contour>
    <contour>
      <point x="100" y="0" type="line"/>
      <point x="412" y="0" type="line"/>
      <point x="1422" y="1241" type="line"/>
      <point x="1115" y="1241" type="line"/>
    </contour>
  </outline>
</glyph>
<glyph name="bracketleft" format="1">
  <advance width="1002"/>
  <unicode hex="005B"/>
  <outline>
    <contour>
      <point x="330" y="0" type="line"/>
      <point x="849" y="0" type="line"/>
      <point x="849" y="184" type="line"/>
      <point x="586" y="184" type="line"/>
      <point x="586" y="1057" type="line"/>
      <point x="849" y="1057" type="line"/>
      <point x="849" y="1241" type="line"/>
      <point x="330" y="1241" type="line"/>
    </contour>
  </outline>
</glyph>
<glyph name="backslash" format="1">
  <advance width="232"/>
  <unicode hex="005C"/>
  <outline>
    <contour>
      <point x="115" y="0" type="line"/>
      <point x="335" y="0" type="line"/>
      <point x="886" y="1241" type="line"/>
      <point x="664" y="1241" type="line"/>
    </contour>
  </outline>
</glyph>
<glyph name="bracketright" format="1">
  <advance width="1002"/>
  <unicode hex="005D"/>
  <outline>
    <contour>
      <point x="328" y="0" type="line"/>
      <point x="847" y="0" type="line"/>
      <point x="847" y="1241" type="line"/>
      <point x="328" y="1241" type="line"/>
      <point x="328" y="1057" type="line"/>
      <point x="591" y="1057" type="line"/>
      <point x="591" y="184" type="line"/>
      <point x="328" y="184" type="line"/>
    </contour>
  </outline>
</glyph>
<glyph name="underscore" format="1">
  <advance width="1001"/>
  <unicode hex="005F"/>
  <outline>
    <contour>
      <point x="142" y="-204" type="line"/>
      <point x="901" y="-204" type="line"/>
      <point x="901" y="-1" type="line"/>
      <point x="142" y="-1" type="line"/>
    </contour>
  </outline>
</glyph>
<glyph name="grave" format="1">
  <advance width="502"/>
  <unicode hex="0060"/>
  <outline>
    <contour>
      <point x="405" y="97" type="curve" smooth="yes"/>
      <point x="394" y="97"/>
      <point x="382" y="103"/>
      <point x="370" y="115" type="curve" smooth="yes"/>
      <point x="117" y="395" type="line" smooth="yes"/>
      <point x="89" y="425"/>
      <point x="77" y="455"/>
      <point x="77" y="482" type="curve" smooth="yes"/>
      <point x="77" y="532"/>
      <point x="118" y="569"/>
      <point x="164" y="569" type="curve" smooth="yes"/>
      <point x="200" y="569"/>
      <point x="241" y="545"/>
      <point x="270" y="486" type="curve" smooth="yes"/>
      <point x="430" y="158" type="line" smooth="yes"/>
      <point x="434" y="149"/>
      <point x="436" y="139"/>
      <point x="436" y="132" type="curve" smooth="yes"/>
      <point x="436" y="111"/>
      <point x="422" y="97"/>
    </contour>
    <contour>
      <point x="256" y="867" type="move" name="_top"/>
    </contour>
  </outline>
</glyph>
<glyph name="a" format="1">
  <advance width="945"/>
  <unicode hex="0061"/>
  <outline>
    <contour>
      <point x="413" y="135" type="curve" smooth="yes"/>
      <point x="364" y="135"/>
      <point x="330" y="175"/>
      <point x="330" y="233" type="curve" smooth="yes"/>
      <point x="330" y="277"/>
      <point x="357" y="334"/>
      <point x="455" y="374" type="curve" smooth="yes"/>
      <point x="470" y="382"/>
      <point x="539" y="402"/>
      <point x="557" y="408" type="curve"/>
      <point x="557" y="205" type="line"/>
      <point x="523" y="165"/>
      <point x="472" y="135"/>
    </contour>
    <contour>
      <point x="359" y="-22" type="curve" smooth="yes"/>
      <point x="428" y="-22"/>
      <point x="531" y="9"/>
      <point x="598" y="106" type="curve"/>
      <point x="643" y="19"/>
      <point x="764" y="-15"/>
      <point x="836" y="-15" type="curve" smooth="yes"/>
      <point x="835" y="-15"/>
      <point x="849" y="-15"/>
      <point x="850" y="-15" type="curve"/>
      <point x="914" y="172" type="line"/>
      <point x="900" y="172" type="line" smooth="yes"/>
      <point x="831" y="172"/>
      <point x="787" y="202"/>
      <point x="787" y="289" type="curve" smooth="yes"/>
      <point x="787" y="593" type="line" smooth="yes"/>
      <point x="787" y="806"/>
      <point x="609" y="886"/>
      <point x="455" y="886" type="curve" smooth="yes"/>
      <point x="264" y="886"/>
      <point x="129" y="799"/>
      <point x="106" y="784" type="curve"/>
      <point x="172" y="607" type="line"/>
      <point x="218" y="632"/>
      <point x="333" y="695"/>
      <point x="426" y="695" type="curve" smooth="yes"/>
      <point x="495" y="695"/>
      <point x="558" y="670"/>
      <point x="558" y="548" type="curve" smooth="yes"/>
      <point x="558" y="521" type="line"/>
      <point x="440" y="493" type="line" smooth="yes"/>
      <point x="192" y="436"/>
      <point x="102" y="326"/>
      <point x="102" y="219" type="curve" smooth="yes"/>
      <point x="102" y="67"/>
      <point x="222" y="-22"/>
    </contour>
    <contour>
      <point x="473" y="867" type="move" name="top"/>
    </contour>
    <contour>
      <point x="850" y="10" type="move" name="ogonek"/>
    </contour>
  </outline>
</glyph>
<glyph name="c" format="1">
  <advance width="937"/>
  <unicode hex="0063"/>
  <outline>
    <contour>
      <point x="577" y="-22" type="curve" smooth="yes"/>
      <point x="726" y="-22"/>
      <point x="819" y="40"/>
      <point x="842" y="53" type="curve"/>
      <point x="842" y="252" type="line"/>
      <point x="783" y="220"/>
      <point x="717" y="178"/>
      <point x="590" y="178" type="curve" smooth="yes"/>
      <point x="411" y="178"/>
      <point x="318" y="292"/>
      <point x="318" y="433" type="curve" smooth="yes"/>
      <point x="318" y="572"/>
      <point x="412" y="682"/>
      <point x="583" y="682" type="curve" smooth="yes"/>
      <point x="739" y="682"/>
      <point x="824" y="606"/>
      <point x="842" y="592" type="curve"/>
      <point x="842" y="814" type="line"/>
      <point x="827" y="824"/>
      <point x="748" y="885"/>
      <point x="572" y="885" type="curve" smooth="yes"/>
      <point x="295" y="885"/>
      <point x="87" y="703"/>
      <point x="87" y="432" type="curve" smooth="yes"/>
      <point x="87" y="167"/>
      <point x="283" y="-22"/>
    </contour>
    <contour>
      <point x="469" y="867" type="move" name="top"/>
    </contour>
    <contour>
      <point x="469" y="0" type="move" name="bottom"/>
    </contour>
  </outline>
</glyph>
<glyph name="d" format="1">
  <advance width="1088"/>
  <unicode hex="0064"/>
  <outline>
    <contour>
      <point x="574" y="-19" type="curve" smooth="yes"/>
      <point x="683" y="-19"/>
      <point x="813" y="5"/>
      <point x="954" y="52" type="curve"/>
      <point x="954" y="1267" type="line"/>
      <point x="721" y="1234" type="line"/>
      <point x="721" y="822" type="line"/>
      <point x="670" y="850"/>
      <point x="588" y="886"/>
      <point x="488" y="886" type="curve" smooth="yes"/>
      <point x="262" y="886"/>
      <point x="87" y="698"/>
      <point x="87" y="457" type="curve" smooth="yes"/>
      <point x="87" y="160"/>
      <point x="267" y="-19"/>
    </contour>
    <contour>
      <point x="604" y="159" type="curve" smooth="yes"/>
      <point x="431" y="159"/>
      <point x="316" y="250"/>
      <point x="316" y="438" type="curve" smooth="yes"/>
      <point x="316" y="587"/>
      <point x="401" y="698"/>
      <point x="549" y="698" type="curve" smooth="yes"/>
      <point x="620" y="698"/>
      <point x="684" y="669"/>
      <point x="721" y="652" type="curve"/>
      <point x="721" y="171" type="line"/>
      <point x="690" y="166"/>
      <point x="649" y="159"/>
    </contour>
    <contour>
      <point x="544" y="433" type="move" name="center"/>
    </contour>
  </outline>
</glyph>
<glyph name="e" format="1">
  <advance width="993"/>
  <unicode hex="0065"/>
  <outline>
    <contour>
      <point x="595" y="-24" type="curve" smooth="yes"/>
      <point x="709" y="-24"/>
      <point x="808" y="7"/>
      <point x="892" y="56" type="curve"/>
      <point x="892" y="249" type="line"/>
      <point x="828" y="206"/>
      <point x="734" y="163"/>
      <point x="611" y="163" type="curve" smooth="yes"/>
      <point x="473" y="163"/>
      <point x="347" y="222"/>
      <point x="320" y="389" type="curve"/>
      <point x="908" y="389" type="line"/>
      <point x="908" y="442" type="line" smooth="yes"/>
      <point x="908" y="683"/>
      <point x="793" y="885"/>
      <point x="518" y="885" type="curve" smooth="yes"/>
      <point x="268" y="885"/>
      <point x="87" y="686"/>
      <point x="87" y="446" type="curve" smooth="yes"/>
      <point x="87" y="131"/>
      <point x="334" y="-24"/>
    </contour>
    <contour>
      <point x="331" y="540" type="line"/>
      <point x="350" y="618"/>
      <point x="418" y="713"/>
      <point x="542" y="713" type="curve" smooth="yes"/>
      <point x="640" y="713"/>
      <point x="704" y="649"/>
      <point x="716" y="540" type="curve"/>
    </contour>
    <contour>
      <point x="497" y="867" type="move" name="top"/>
    </contour>
    <contour>
      <point x="894" y="10" type="move" name="ogonek"/>
    </contour>
    <contour>
      <point x="497" y="0" type="move" name="bottom"/>
    </contour>
  </outline>
</glyph>
<glyph name="f" format="1">
  <advance width="684"/>
  <unicode hex="0066"/>
  <outline>
    <contour>
      <point x="191" y="0" type="line"/>
      <point x="424" y="0" type="line"/>
      <point x="424" y="677" type="line"/>
      <point x="588" y="677" type="line"/>
      <point x="588" y="861" type="line"/>
      <point x="423" y="861" type="line"/>
      <point x="423" y="927" type="line" smooth="yes"/>
      <point x="423" y="1018"/>
      <point x="475" y="1044"/>
      <point x="538" y="1044" type="curve" smooth="yes"/>
      <point x="600" y="1044"/>
      <point x="673" y="1017"/>
      <point x="686" y="1013" type="curve"/>
      <point x="686" y="1215" type="line"/>
      <point x="671" y="1219"/>
      <point x="584" y="1251"/>
      <point x="499" y="1251" type="curve" smooth="yes"/>
      <point x="291" y="1251"/>
      <point x="188" y="1132"/>
      <point x="188" y="927" type="curve" smooth="yes"/>
      <point x="188" y="861" type="line"/>
      <point x="73" y="861" type="line"/>
      <point x="73" y="677" type="line"/>
      <point x="191" y="677" type="line"/>
    </contour>
  </outline>
</glyph>
<glyph name="g" format="1">
  <advance width="1101"/>
  <unicode hex="0067"/>
  <outline>
    <contour>
      <point x="580" y="-393" type="curve" smooth="yes"/>
      <point x="780" y="-393"/>
      <point x="971" y="-304"/>
      <point x="971" y="-19" type="curve" smooth="yes"/>
      <point x="971" y="861" type="line"/>
      <point x="741" y="861" type="line"/>
      <point x="741" y="804" type="line"/>
      <point x="706" y="838"/>
      <point x="599" y="883"/>
      <point x="508" y="883" type="curve" smooth="yes"/>
      <point x="267" y="883"/>
      <point x="87" y="683"/>
      <point x="87" y="437" type="curve" smooth="yes"/>
      <point x="87" y="210"/>
      <point x="243" y="-15"/>
      <point x="568" y="-15" type="curve" smooth="yes"/>
      <point x="627" y="-15"/>
      <point x="714" y="-2"/>
      <point x="756" y="13" type="curve"/>
      <point x="757" y="6"/>
      <point x="757" y="-21"/>
      <point x="757" y="-26" type="curve" smooth="yes"/>
      <point x="757" y="-147"/>
      <point x="671" y="-189"/>
      <point x="568" y="-189" type="curve" smooth="yes"/>
      <point x="427" y="-189"/>
      <point x="293" y="-137"/>
      <point x="277" y="-130" type="curve"/>
      <point x="277" y="-328" type="line"/>
      <point x="304" y="-338"/>
      <point x="423" y="-393"/>
    </contour>
    <contour>
      <point x="589" y="163" type="curve" smooth="yes"/>
      <point x="421" y="163"/>
      <point x="315" y="264"/>
      <point x="315" y="426" type="curve" smooth="yes"/>
      <point x="315" y="574"/>
      <point x="403" y="697"/>
      <point x="568" y="697" type="curve" smooth="yes"/>
      <point x="637" y="697"/>
      <point x="706" y="669"/>
      <point x="739" y="649" type="curve"/>
      <point x="739" y="180" type="line"/>
      <point x="696" y="169"/>
      <point x="641" y="163"/>
    </contour>
    <contour>
      <point x="550" y="867" type="move" name="top"/>
    </contour>
  </outline>
</glyph>
<glyph name="h" format="1">
  <advance width="1166"/>
  <unicode hex="0068"/>
  <outline>
    <contour>
      <point x="139" y="0" type="line"/>
      <point x="377" y="0" type="line"/>
      <point x="377" y="585" type="line"/>
      <point x="397" y="624"/>
      <point x="504" y="704"/>
      <point x="626" y="704" type="curve" smooth="yes"/>
      <point x="724" y="704"/>
      <point x="790" y="664"/>
      <point x="790" y="559" type="curve" smooth="yes"/>
      <point x="790" y="0" type="line"/>
      <point x="1028" y="0" type="line"/>
      <point x="1028" y="580" type="line" smooth="yes"/>
      <point x="1028" y="760"/>
      <point x="879" y="885"/>
      <point x="700" y="885" type="curve" smooth="yes"/>
      <point x="559" y="885"/>
      <point x="447" y="822"/>
      <point x="375" y="759" type="curve"/>
      <point x="375" y="1267" type="line"/>
      <point x="139" y="1234" type="line"/>
    </contour>
    <contour>
      <point x="583" y="867" type="move" name="top"/>
    </contour>
    <contour>
      <point x="583" y="433" type="move" name="center"/>
    </contour>
  </outline>
</glyph>
<glyph name="i" format="1">
  <advance width="537"/>
  <unicode hex="0069"/>
  <outline>
    <contour>
      <point x="269" y="997" type="curve" smooth="yes"/>
      <point x="361" y="997"/>
      <point x="414" y="1068"/>
      <point x="414" y="1140" type="curve" smooth="yes"/>
      <point x="414" y="1209"/>
      <point x="362" y="1283"/>
      <point x="269" y="1283" type="curve" smooth="yes"/>
      <point x="176" y="1283"/>
      <point x="123" y="1210"/>
      <point x="123" y="1140" type="curve" smooth="yes"/>
      <point x="123" y="1067"/>
      <point x="177" y="997"/>
    </contour>
    <contour>
      <point x="154" y="0" type="line"/>
      <point x="385" y="0" type="line"/>
      <point x="385" y="861" type="line"/>
      <point x="154" y="861" type="line"/>
    </contour>
  </outline>
</glyph>
<glyph name="j" format="1">
  <advance width="565"/>
  <unicode hex="006A"/>
  <outline>
    <contour>
      <point x="296" y="989" type="curve" smooth="yes"/>
      <point x="388" y="989"/>
      <point x="442" y="1060"/>
      <point x="442" y="1133" type="curve" smooth="yes"/>
      <point x="442" y="1204"/>
      <point x="388" y="1274"/>
      <point x="296" y="1274" type="curve" smooth="yes"/>
      <point x="206" y="1274"/>
      <point x="149" y="1205"/>
      <point x="149" y="1133" type="curve" smooth="yes"/>
      <point x="149" y="1060"/>
      <point x="206" y="989"/>
    </contour>
    <contour>
      <point x="47" y="-340" type="line"/>
      <point x="365" y="-336"/>
      <point x="416" y="-157"/>
      <point x="416" y="-36" type="curve" smooth="yes"/>
      <point x="416" y="861" type="line"/>
      <point x="182" y="861" type="line"/>
      <point x="182" y="-12" type="line" smooth="yes"/>
      <point x="182" y="-112"/>
      <point x="116" y="-129"/>
      <point x="38" y="-143" type="curve" smooth="yes"/>
      <point x="35" y="-144"/>
      <point x="4" y="-151"/>
      <point x="1" y="-151" type="curve"/>
    </contour>
  </outline>
</glyph>
<glyph name="k" format="1">
  <advance width="1019"/>
  <unicode hex="006B"/>
  <outline>
    <contour>
      <point x="134" y="0" type="line"/>
      <point x="367" y="0" type="line"/>
      <point x="367" y="395" type="line"/>
      <point x="728" y="0" type="line"/>
      <point x="1026" y="0" type="line"/>
      <point x="597" y="461" type="line"/>
      <point x="973" y="860" type="line"/>
      <point x="683" y="860" type="line"/>
      <point x="367" y="517" type="line"/>
      <point x="367" y="1266" type="line"/>
      <point x="134" y="1235" type="line"/>
    </contour>
    <contour>
      <point x="510" y="0" type="move" name="bottom"/>
    </contour>
  </outline>
</glyph>
<glyph name="l" format="1">
  <advance width="677"/>
  <unicode hex="006C"/>
  <outline>
    <contour>
      <point x="408" y="-22" type="curve" smooth="yes"/>
      <point x="528" y="-22"/>
      <point x="599" y="11"/>
      <point x="616" y="19" type="curve"/>
      <point x="616" y="205" type="line"/>
      <point x="587" y="193"/>
      <point x="522" y="173"/>
      <point x="465" y="173" type="curve" smooth="yes"/>
      <point x="405" y="173"/>
      <point x="367" y="199"/>
      <point x="367" y="283" type="curve" smooth="yes"/>
      <point x="367" y="1267" type="line"/>
      <point x="134" y="1234" type="line"/>
      <point x="134" y="255" type="line" smooth="yes"/>
      <point x="134" y="71"/>
      <point x="264" y="-22"/>
    </contour>
    <contour>
      <point x="339" y="867" type="move" name="top"/>
    </contour>
    <contour>
      <point x="657" y="867" type="move" name="topright"/>
    </contour>
    <contour>
      <point x="339" y="0" type="move" name="bottom"/>
    </contour>
  </outline>
</glyph>
<glyph name="m" format="1">
  <advance width="1698"/>
  <unicode hex="006D"/>
  <outline>
    <contour>
      <point x="134" y="0" type="line"/>
      <point x="367" y="0" type="line"/>
      <point x="367" y="585" type="line"/>
      <point x="405" y="635"/>
      <point x="496" y="698"/>
      <point x="597" y="698" type="curve" smooth="yes"/>
      <point x="671" y="698"/>
      <point x="738" y="665"/>
      <point x="738" y="559" type="curve" smooth="yes"/>
      <point x="738" y="0" type="line"/>
      <point x="968" y="0" type="line"/>
      <point x="968" y="587" type="line"/>
      <point x="1001" y="623"/>
      <point x="1095" y="698"/>
      <point x="1200" y="698" type="curve" smooth="yes"/>
      <point x="1288" y="698"/>
      <point x="1346" y="663"/>
      <point x="1346" y="551" type="curve" smooth="yes"/>
      <point x="1346" y="0" type="line"/>
      <point x="1578" y="0" type="line"/>
      <point x="1578" y="571" type="line" smooth="yes"/>
      <point x="1578" y="780"/>
      <point x="1420" y="884"/>
      <point x="1245" y="884" type="curve" smooth="yes"/>
      <point x="1145" y="884"/>
      <point x="1006" y="835"/>
      <point x="919" y="746" type="curve"/>
      <point x="872" y="826"/>
      <point x="782" y="883"/>
      <point x="666" y="883" type="curve" smooth="yes"/>
      <point x="559" y="883"/>
      <point x="428" y="836"/>
      <point x="364" y="759" type="curve"/>
      <point x="364" y="861" type="line"/>
      <point x="134" y="861" type="line"/>
    </contour>
  </outline>
</glyph>
<glyph name="n" format="1">
  <advance width="1143"/>
  <unicode hex="006E"/>
  <outline>
    <contour>
      <point x="134" y="0" type="line"/>
      <point x="372" y="0" type="line"/>
      <point x="372" y="585" type="line"/>
      <point x="392" y="624"/>
      <point x="499" y="704"/>
      <point x="621" y="704" type="curve" smooth="yes"/>
      <point x="718" y="704"/>
      <point x="786" y="664"/>
      <point x="786" y="559" type="curve" smooth="yes"/>
      <point x="786" y="0" type="line"/>
      <point x="1023" y="0" type="line"/>
      <point x="1023" y="580" type="line" smooth="yes"/>
      <point x="1023" y="760"/>
      <point x="873" y="885"/>
      <point x="694" y="885" type="curve" smooth="yes"/>
      <point x="553" y="885"/>
      <point x="442" y="822"/>
      <point x="369" y="759" type="curve"/>
      <point x="369" y="861" type="line"/>
      <point x="134" y="861" type="line"/>
    </contour>
    <contour>
      <point x="572" y="867" type="move" name="top"/>
    </contour>
    <contour>
      <point x="572" y="0" type="move" name="bottom"/>
    </contour>
  </outline>
</glyph>
<glyph name="r" format="1">
  <advance width="813"/>
  <unicode hex="0072"/>
  <outline>
    <contour>
      <point x="134" y="0" type="line"/>
      <point x="366" y="0" type="line"/>
      <point x="366" y="379" type="line" smooth="yes"/>
      <point x="366" y="537"/>
      <point x="473" y="640"/>
      <point x="569" y="640" type="curve" smooth="yes"/>
      <point x="622" y="640"/>
      <point x="674" y="608"/>
      <point x="717" y="558" type="curve"/>
      <point x="816" y="744" type="line"/>
      <point x="745" y="824"/>
      <point x="680" y="866"/>
      <point x="608" y="866" type="curve" smooth="yes"/>
      <point x="512" y="866"/>
      <point x="394" y="720"/>
      <point x="366" y="614" type="curve"/>
      <point x="366" y="861" type="line"/>
      <point x="134" y="861" type="line"/>
    </contour>
    <contour>
      <point x="407" y="867" type="move" name="top"/>
    </contour>
    <contour>
      <point x="407" y="0" type="move" name="bottom"/>
    </contour>
  </outline>
</glyph>
<glyph name="s" format="1">
  <advance width="830"/>
  <unicode hex="0073"/>
  <outline>
    <contour>
      <point x="461" y="-22" type="curve" smooth="yes"/>
      <point x="653" y="-22"/>
      <point x="752" y="101"/>
      <point x="752" y="225" type="curve" smooth="yes"/>
      <point x="752" y="304"/>
      <point x="711" y="391"/>
      <point x="613" y="449" type="curve" smooth="yes"/>
      <point x="398" y="576" type="line" smooth="yes"/>
      <point x="365" y="595"/>
      <point x="349" y="616"/>
      <point x="349" y="647" type="curve" smooth="yes"/>
      <point x="349" y="680"/>
      <point x="380" y="710"/>
      <point x="443" y="710" type="curve" smooth="yes"/>
      <point x="541" y="710"/>
      <point x="651" y="660"/>
      <point x="680" y="645" type="curve"/>
      <point x="724" y="810" type="line"/>
      <point x="702" y="823"/>
      <point x="588" y="886"/>
      <point x="424" y="886" type="curve" smooth="yes"/>
      <point x="230" y="886"/>
      <point x="124" y="766"/>
      <point x="124" y="640" type="curve" smooth="yes"/>
      <point x="124" y="559"/>
      <point x="165" y="470"/>
      <point x="269" y="409" type="curve"/>
      <point x="473" y="291" type="line" smooth="yes"/>
      <point x="512" y="269"/>
      <point x="527" y="246"/>
      <point x="527" y="220" type="curve" smooth="yes"/>
      <point x="527" y="183"/>
      <point x="492" y="160"/>
      <point x="446" y="160" type="curve" smooth="yes"/>
      <point x="312" y="160"/>
      <point x="182" y="227"/>
      <point x="123" y="264" type="curve"/>
      <point x="100" y="86" type="line"/>
      <point x="119" y="72"/>
      <point x="247" y="-22"/>
    </contour>
    <contour>
      <point x="415" y="867" type="move" name="top"/>
    </contour>
    <contour>
      <point x="415" y="0" type="move" name="bottom"/>
    </contour>
  </outline>
</glyph>
<glyph name="t" format="1">
  <advance width="786"/>
  <unicode hex="0074"/>
  <outline>
    <contour>
      <point x="461" y="-23" type="curve" smooth="yes"/>
      <point x="620" y="-23"/>
      <point x="706" y="43"/>
      <point x="720" y="53" type="curve"/>
      <point x="720" y="229" type="line"/>
      <point x="686" y="214"/>
      <point x="592" y="171"/>
      <point x="510" y="171" type="curve" smooth="yes"/>
      <point x="451" y="171"/>
      <point x="404" y="192"/>
      <point x="404" y="271" type="curve" smooth="yes"/>
      <point x="404" y="679" type="line"/>
      <point x="675" y="679" type="line"/>
      <point x="675" y="860" type="line"/>
      <point x="404" y="860" type="line"/>
      <point x="404" y="1096" type="line"/>
      <point x="79" y="758" type="line"/>
      <point x="66" y="745"/>
      <point x="59" y="731"/>
      <point x="59" y="718" type="curve" smooth="yes"/>
      <point x="59" y="696"/>
      <point x="77" y="679"/>
      <point x="109" y="679" type="curve" smooth="yes"/>
      <point x="175" y="679" type="line"/>
      <point x="175" y="212" type="line" smooth="yes"/>
      <point x="175" y="60"/>
      <point x="316" y="-23"/>
    </contour>
    <contour>
      <point x="393" y="433" type="move" name="center"/>
    </contour>
    <contour>
      <point x="393" y="0" type="move" name="bottom"/>
    </contour>
  </outline>
</glyph>
<glyph name="u" format="1">
  <advance width="1137"/>
  <unicode hex="0075"/>
  <outline>
    <contour>
      <point x="453" y="-25" type="curve" smooth="yes"/>
      <point x="593" y="-25"/>
      <point x="696" y="43"/>
      <point x="768" y="107" type="curve"/>
      <point x="768" y="0" type="line"/>
      <point x="1003" y="0" type="line"/>
      <point x="1003" y="861" type="line"/>
      <point x="765" y="861" type="line"/>
      <point x="765" y="275" type="line"/>
      <point x="745" y="236"/>
      <point x="642" y="157"/>
      <point x="521" y="157" type="curve" smooth="yes"/>
      <point x="423" y="157"/>
      <point x="359" y="196"/>
      <point x="359" y="302" type="curve" smooth="yes"/>
      <point x="359" y="861" type="line"/>
      <point x="121" y="861" type="line"/>
      <point x="121" y="280" type="line" smooth="yes"/>
      <point x="121" y="101"/>
      <point x="270" y="-25"/>
    </contour>
    <contour>
      <point x="569" y="867" type="move" name="top"/>
    </contour>
    <contour>
      <point x="1023" y="10" type="move" name="ogonek"/>
    </contour>
  </outline>
</glyph>
<glyph name="w" format="1">
  <advance width="1311"/>
  <unicode hex="0077"/>
  <outline>
    <contour>
      <point x="392" y="-18" type="line"/>
      <point x="660" y="518" type="line"/>
      <point x="927" y="-18" type="line"/>
      <point x="1286" y="861" type="line"/>
      <point x="1061" y="861" type="line"/>
      <point x="897" y="414" type="line"/>
      <point x="660" y="885" type="line"/>
      <point x="423" y="424" type="line"/>
      <point x="261" y="861" type="line"/>
      <point x="25" y="861" type="line"/>
    </contour>
    <contour>
      <point x="656" y="867" type="move" name="top"/>
    </contour>
  </outline>
</glyph>
<glyph name="x" format="1">
  <advance width="1118"/>
  <unicode hex="0078"/>
  <outline>
    <contour>
      <point x="34" y="0" type="line"/>
      <point x="326" y="0" type="line"/>
      <point x="562" y="301" type="line"/>
      <point x="811" y="0" type="line"/>
      <point x="1084" y="0" type="line"/>
      <point x="702" y="433" type="line"/>
      <point x="1070" y="860" type="line"/>
      <point x="782" y="860" type="line"/>
      <point x="554" y="574" type="line"/>
      <point x="316" y="860" type="line"/>
      <point x="41" y="860" type="line"/>
      <point x="414" y="443" type="line"/>
    </contour>
  </outline>
</glyph>
<glyph name="y" format="1">
  <advance width="992"/>
  <unicode hex="0079"/>
  <outline>
    <contour>
      <point x="160" y="-244" type="line"/>
      <point x="412" y="-244" type="line"/>
      <point x="986" y="861" type="line"/>
      <point x="731" y="861" type="line"/>
      <point x="515" y="430" type="line"/>
      <point x="274" y="861" type="line"/>
      <point x="8" y="861" type="line"/>
      <point x="388" y="223" type="line"/>
    </contour>
    <contour>
      <point x="496" y="867" type="move" name="top"/>
    </contour>
  </outline>
</glyph>
<glyph name="z" format="1">
  <advance width="900"/>
  <unicode hex="007A"/>
  <outline>
    <contour>
      <point x="69" y="0" type="line"/>
      <point x="808" y="0" type="line"/>
      <point x="808" y="181" type="line"/>
      <point x="431" y="181" type="line"/>
      <point x="838" y="861" type="line"/>
      <point x="102" y="861" type="line"/>
      <point x="102" y="685" type="line"/>
      <point x="502" y="685" type="line"/>
    </contour>
    <contour>
      <point x="450" y="867" type="move" name="top"/>
    </contour>
  </outline>
</glyph>
<glyph name="bar" format="1">
  <advance width="630"/>
  <unicode hex="007C"/>
  <outline>
    <contour>
      <point x="131" y="-106" type="line"/>
      <point x="131" y="-106"/>
      <point x="364" y="-106"/>
      <point x="364" y="-105" type="curve" smooth="yes"/>
      <point x="364" y="1267" type="line"/>
      <point x="131" y="1267" type="line"/>
    </contour>
  </outline>
</glyph>
<glyph name="braceright" format="1">
  <advance width="605"/>
  <unicode hex="007D"/>
  <outline>
    <contour>
      <point x="72" y="-46" type="line"/>
      <point x="72" y="40" type="line"/>
      <point x="141" y="40" type="line" smooth="yes"/>
      <point x="243" y="40"/>
      <point x="283" y="94"/>
      <point x="283" y="256" type="curve" smooth="yes"/>
      <point x="283" y="365" type="line" smooth="yes"/>
      <point x="283" y="540"/>
      <point x="335" y="582"/>
      <point x="410" y="613" type="curve"/>
      <point x="335" y="639"/>
      <point x="283" y="687"/>
      <point x="283" y="862" type="curve" smooth="yes"/>
      <point x="283" y="971" type="line" smooth="yes"/>
      <point x="283" y="1133"/>
      <point x="243" y="1188"/>
      <point x="141" y="1188" type="curve" smooth="yes"/>
      <point x="72" y="1188" type="line"/>
      <point x="72" y="1274" type="line"/>
      <point x="158" y="1274" type="line" smooth="yes"/>
      <point x="329" y="1274"/>
      <point x="403" y="1190"/>
      <point x="403" y="990" type="curve" smooth="yes"/>
      <point x="403" y="862" type="line" smooth="yes"/>
      <point x="403" y="699"/>
      <point x="455" y="657"/>
      <point x="544" y="656" type="curve"/>
      <point x="544" y="572" type="line"/>
      <point x="454" y="571"/>
      <point x="403" y="527"/>
      <point x="403" y="365" type="curve" smooth="yes"/>
      <point x="403" y="238" type="line" smooth="yes"/>
      <point x="403" y="38"/>
      <point x="329" y="-46"/>
      <point x="158" y="-46" type="curve" smooth="yes"/>
    </contour>
  </outline>
</glyph>
<glyph name="asciitilde" format="1">
  <advance width="1000"/>
  <unicode hex="007E"/>
  <outline>
    <contour>
      <point x="716" y="603" type="curve" smooth="yes"/>
      <point x="866" y="603"/>
      <point x="911" y="685"/>
      <point x="914" y="861" type="curve"/>
      <point x="794" y="861" type="line"/>
      <point x="785" y="791"/>
      <point x="773" y="738"/>
      <point x="712" y="738" type="curve" smooth="yes"/>
      <point x="614" y="738"/>
      <point x="448" y="875"/>
      <point x="301" y="875" type="curve" smooth="yes"/>
      <point x="153" y="875"/>
      <point x="91" y="792"/>
      <point x="89" y="617" type="curve"/>
      <point x="208" y="617" type="line"/>
      <point x="217" y="694"/>
      <point x="234" y="741"/>
      <point x="305" y="741" type="curve" smooth="yes"/>
      <point x="410" y="741"/>
      <point x="578" y="603"/>
    </contour>
  </outline>
</glyph>
<glyph name="cent" format="1">
  <advance width="953"/>
  <unicode hex="00A2"/>
  <outline>
    <contour>
      <point x="390" y="-188" type="line"/>
      <point x="477" y="-188" type="line"/>
      <point x="739" y="1034" type="line"/>
      <point x="643" y="1034" type="line"/>
    </contour>
    <component base="c"/>
  </outline>
</glyph>
<glyph name="brokenbar" format="1">
  <advance width="630"/>
  <unicode hex="00A6"/>
  <outline>
    <contour>
      <point x="201" y="-106" type="line"/>
      <point x="201" y="-106"/>
      <point x="433" y="-106"/>
      <point x="433" y="-105" type="curve" smooth="yes"/>
      <point x="433" y="433" type="line"/>
      <point x="201" y="433" type="line"/>
    </contour>
    <contour>
      <point x="201" y="725" type="line"/>
      <point x="201" y="725"/>
      <point x="433" y="725"/>
      <point x="433" y="726" type="curve" smooth="yes"/>
      <point x="433" y="1267" type="line"/>
      <point x="201" y="1267" type="line"/>
    </contour>
  </outline>
</glyph>
<glyph name="section" format="1">
  <advance width="843"/>
  <unicode hex="00A7"/>
  <outline>
    <contour>
      <point x="470" y="-7" type="curve" smooth="yes"/>
      <point x="661" y="-7"/>
      <point x="753" y="116"/>
      <point x="753" y="240" type="curve" smooth="yes"/>
      <point x="753" y="304"/>
      <point x="719" y="369"/>
      <point x="647" y="422" type="curve"/>
      <point x="725" y="469"/>
      <point x="765" y="545"/>
      <point x="765" y="622" type="curve" smooth="yes"/>
      <point x="765" y="694"/>
      <point x="730" y="769"/>
      <point x="636" y="824" type="curve" smooth="yes"/>
      <point x="393" y="967" type="line" smooth="yes"/>
      <point x="358" y="986"/>
      <point x="344" y="1007"/>
      <point x="344" y="1035" type="curve" smooth="yes"/>
      <point x="344" y="1074"/>
      <point x="385" y="1103"/>
      <point x="448" y="1103" type="curve" smooth="yes"/>
      <point x="548" y="1103"/>
      <point x="665" y="1044"/>
      <point x="682" y="1037" type="curve" smooth="yes"/>
      <point x="726" y="1198" type="line"/>
      <point x="704" y="1211"/>
      <point x="590" y="1273"/>
      <point x="426" y="1273" type="curve" smooth="yes"/>
      <point x="232" y="1273"/>
      <point x="126" y="1154"/>
      <point x="126" y="1028" type="curve" smooth="yes"/>
      <point x="126" y="961"/>
      <point x="158" y="895"/>
      <point x="233" y="839" type="curve"/>
      <point x="154" y="791"/>
      <point x="116" y="724"/>
      <point x="116" y="654" type="curve" smooth="yes"/>
      <point x="116" y="580"/>
      <point x="157" y="505"/>
      <point x="260" y="445" type="curve"/>
      <point x="475" y="311" type="line" smooth="yes"/>
      <point x="513" y="289"/>
      <point x="529" y="268"/>
      <point x="529" y="240" type="curve" smooth="yes"/>
      <point x="529" y="195"/>
      <point x="495" y="173"/>
      <point x="443" y="173" type="curve" smooth="yes"/>
      <point x="341" y="173"/>
      <point x="152" y="256"/>
      <point x="125" y="273" type="curve"/>
      <point x="102" y="102" type="line"/>
      <point x="121" y="88"/>
      <point x="256" y="-7"/>
    </contour>
    <contour>
      <point x="530" y="496" type="curve"/>
      <point x="329" y="619" type="line" smooth="yes"/>
      <point x="294" y="639"/>
      <point x="280" y="658"/>
      <point x="280" y="686" type="curve" smooth="yes"/>
      <point x="280" y="718"/>
      <point x="309" y="747"/>
      <point x="356" y="761" type="curve"/>
      <point x="547" y="647" type="line" smooth="yes"/>
      <point x="586" y="626"/>
      <point x="601" y="602"/>
      <point x="601" y="574" type="curve" smooth="yes"/>
      <point x="601" y="539"/>
      <point x="575" y="508"/>
    </contour>
  </outline>
</glyph>
<glyph name="dieresis" format="1">
  <advance width="996"/>
  <unicode hex="00A8"/>
  <outline>
    <contour>
      <point x="718" y="30" type="curve" smooth="yes"/>
      <point x="801" y="30"/>
      <point x="849" y="95"/>
      <point x="849" y="159" type="curve" smooth="yes"/>
      <point x="849" y="222"/>
      <point x="802" y="289"/>
      <point x="718" y="289" type="curve" smooth="yes"/>
      <point x="633" y="289"/>
      <point x="585" y="223"/>
      <point x="585" y="159" type="curve" smooth="yes"/>
      <point x="585" y="94"/>
      <point x="634" y="30"/>
    </contour>
    <contour>
      <point x="279" y="30" type="curve" smooth="yes"/>
      <point x="363" y="30"/>
      <point x="411" y="95"/>
      <point x="411" y="159" type="curve" smooth="yes"/>
      <point x="411" y="222"/>
      <point x="363" y="289"/>
      <point x="279" y="289" type="curve" smooth="yes"/>
      <point x="195" y="289"/>
      <point x="147" y="223"/>
      <point x="147" y="159" type="curve" smooth="yes"/>
      <point x="147" y="94"/>
      <point x="195" y="30"/>
    </contour>
    <contour>
      <point x="498" y="867" type="move" name="_top"/>
    </contour>
  </outline>
</glyph>
<glyph name="copyright" format="1">
  <advance width="1681"/>
  <unicode hex="00A9"/>
  <outline>
    <contour>
      <point x="841" y="17" type="curve" smooth="yes"/>
      <point x="534" y="17"/>
      <point x="233" y="213"/>
      <point x="233" y="620" type="curve" smooth="yes"/>
      <point x="233" y="1026"/>
      <point x="530" y="1225"/>
      <point x="841" y="1225" type="curve" smooth="yes"/>
      <point x="1151" y="1225"/>
      <point x="1450" y="1028"/>
      <point x="1450" y="622" type="curve" smooth="yes"/>
      <point x="1450" y="214"/>
      <point x="1142" y="17"/>
    </contour>
    <contour>
      <point x="842" y="-98" type="curve" smooth="yes"/>
      <point x="1209" y="-98"/>
      <point x="1573" y="140"/>
      <point x="1573" y="624" type="curve" smooth="yes"/>
      <point x="1573" y="1101"/>
      <point x="1209" y="1340"/>
      <point x="841" y="1340" type="curve" smooth="yes"/>
      <point x="474" y="1340"/>
      <point x="110" y="1102"/>
      <point x="110" y="620" type="curve" smooth="yes"/>
      <point x="110" y="140"/>
      <point x="474" y="-98"/>
    </contour>
    <contour>
      <point x="853" y="148" type="curve" smooth="yes"/>
      <point x="1000" y="148"/>
      <point x="1132" y="208"/>
      <point x="1163" y="225" type="curve"/>
      <point x="1163" y="402" type="line"/>
      <point x="1078" y="342"/>
      <point x="972" y="308"/>
      <point x="871" y="308" type="curve" smooth="yes"/>
      <point x="704" y="308"/>
      <point x="556" y="403"/>
      <point x="556" y="623" type="curve" smooth="yes"/>
      <point x="556" y="843"/>
      <point x="706" y="940"/>
      <point x="875" y="940" type="curve" smooth="yes"/>
      <point x="975" y="940"/>
      <point x="1079" y="907"/>
      <point x="1163" y="848" type="curve"/>
      <point x="1163" y="1022" type="line"/>
      <point x="1134" y="1040"/>
      <point x="1004" y="1100"/>
      <point x="858" y="1100" type="curve" smooth="yes"/>
      <point x="574" y="1100"/>
      <point x="363" y="917"/>
      <point x="363" y="624" type="curve" smooth="yes"/>
      <point x="363" y="334"/>
      <point x="575" y="148"/>
    </contour>
  </outline>
</glyph>
<glyph name="guillemotleft" format="1">
  <advance width="910"/>
  <unicode hex="00AB"/>
  <outline>
    <contour>
      <point x="804" y="168" type="curve" smooth="yes"/>
      <point x="825" y="168"/>
      <point x="840" y="183"/>
      <point x="840" y="201" type="curve" smooth="yes"/>
      <point x="840" y="213"/>
      <point x="834" y="225"/>
      <point x="821" y="237" type="curve"/>
      <point x="623" y="518" type="line"/>
      <point x="821" y="798" type="line"/>
      <point x="834" y="811"/>
      <point x="840" y="823"/>
      <point x="840" y="835" type="curve" smooth="yes"/>
      <point x="840" y="853"/>
      <point x="825" y="867"/>
      <point x="804" y="867" type="curve" smooth="yes"/>
      <point x="796" y="867"/>
      <point x="786" y="865"/>
      <point x="776" y="861" type="curve"/>
      <point x="481" y="630" type="line"/>
      <point x="435" y="601"/>
      <point x="410" y="559"/>
      <point x="410" y="518" type="curve" smooth="yes"/>
      <point x="410" y="477"/>
      <point x="434" y="436"/>
      <point x="481" y="406" type="curve"/>
      <point x="776" y="175" type="line"/>
      <point x="786" y="170"/>
      <point x="796" y="168"/>
    </contour>
    <contour>
      <point x="454" y="168" type="curve" smooth="yes"/>
      <point x="476" y="168"/>
      <point x="491" y="183"/>
      <point x="491" y="201" type="curve" smooth="yes"/>
      <point x="491" y="213"/>
      <point x="484" y="225"/>
      <point x="472" y="237" type="curve"/>
      <point x="274" y="518" type="line"/>
      <point x="472" y="798" type="line"/>
      <point x="484" y="811"/>
      <point x="491" y="823"/>
      <point x="491" y="835" type="curve" smooth="yes"/>
      <point x="491" y="853"/>
      <point x="476" y="867"/>
      <point x="454" y="867" type="curve" smooth="yes"/>
      <point x="446" y="867"/>
      <point x="437" y="865"/>
      <point x="426" y="861" type="curve"/>
      <point x="132" y="630" type="line"/>
      <point x="85" y="601"/>
      <point x="60" y="559"/>
      <point x="60" y="518" type="curve" smooth="yes"/>
      <point x="60" y="477"/>
      <point x="84" y="436"/>
      <point x="132" y="406" type="curve"/>
      <point x="426" y="175" type="line"/>
      <point x="437" y="170"/>
      <point x="446" y="168"/>
    </contour>
  </outline>
</glyph>
<glyph name="registered" format="1">
  <advance width="1710"/>
  <unicode hex="00AE"/>
  <outline>
    <contour>
      <point x="553" y="169" type="line"/>
      <point x="737" y="169" type="line"/>
      <point x="737" y="558" type="line"/>
      <point x="748" y="558" type="line"/>
      <point x="993" y="169" type="line"/>
      <point x="1207" y="169" type="line"/>
      <point x="925" y="585" type="line"/>
      <point x="1068" y="610"/>
      <point x="1153" y="689"/>
      <point x="1153" y="814" type="curve" smooth="yes"/>
      <point x="1153" y="996"/>
      <point x="999" y="1071"/>
      <point x="804" y="1071" type="curve" smooth="yes"/>
      <point x="553" y="1071" type="line"/>
    </contour>
    <contour>
      <point x="736" y="661" type="line"/>
      <point x="736" y="947" type="line"/>
      <point x="781" y="947" type="line" smooth="yes"/>
      <point x="917" y="947"/>
      <point x="978" y="896"/>
      <point x="978" y="810" type="curve" smooth="yes"/>
      <point x="978" y="709"/>
      <point x="885" y="661"/>
      <point x="774" y="661" type="curve" smooth="yes"/>
    </contour>
    <contour>
      <point x="855" y="10" type="curve" smooth="yes"/>
      <point x="549" y="10"/>
      <point x="247" y="213"/>
      <point x="247" y="620" type="curve" smooth="yes"/>
      <point x="247" y="1026"/>
      <point x="544" y="1232"/>
      <point x="855" y="1232" type="curve" smooth="yes"/>
      <point x="1165" y="1232"/>
      <point x="1464" y="1028"/>
      <point x="1464" y="622" type="curve" smooth="yes"/>
      <point x="1464" y="214"/>
      <point x="1156" y="10"/>
    </contour>
    <contour>
      <point x="856" y="-98" type="curve" smooth="yes"/>
      <point x="1223" y="-98"/>
      <point x="1602" y="140"/>
      <point x="1602" y="624" type="curve" smooth="yes"/>
      <point x="1602" y="1101"/>
      <point x="1223" y="1340"/>
      <point x="855" y="1340" type="curve" smooth="yes"/>
      <point x="488" y="1340"/>
      <point x="110" y="1102"/>
      <point x="110" y="620" type="curve" smooth="yes"/>
      <point x="110" y="140"/>
      <point x="488" y="-98"/>
    </contour>
  </outline>
</glyph>
<glyph name="macron" format="1">
  <advance width="1161"/>
  <unicode hex="00AF"/>
  <outline>
    <component base="minus" xOffset="-34"/>
    <contour>
      <point x="66" y="867" type="move" name="_top"/>
    </contour>
  </outline>
</glyph>
<glyph name="acute" format="1">
  <advance width="501"/>
  <unicode hex="00B4"/>
  <outline>
    <contour>
      <point x="102" y="97" type="curve" smooth="yes"/>
      <point x="113" y="97"/>
      <point x="125" y="103"/>
      <point x="137" y="115" type="curve" smooth="yes"/>
      <point x="390" y="395" type="line" smooth="yes"/>
      <point x="418" y="425"/>
      <point x="430" y="455"/>
      <point x="430" y="482" type="curve" smooth="yes"/>
      <point x="430" y="532"/>
      <point x="390" y="569"/>
      <point x="344" y="569" type="curve" smooth="yes"/>
      <point x="307" y="569"/>
      <point x="266" y="546"/>
      <point x="237" y="486" type="curve" smooth="yes"/>
      <point x="77" y="158" type="line" smooth="yes"/>
      <point x="73" y="148"/>
      <point x="71" y="139"/>
      <point x="71" y="132" type="curve" smooth="yes"/>
      <point x="71" y="111"/>
      <point x="85" y="97"/>
    </contour>
    <contour>
      <point x="250" y="867" type="move" name="_top"/>
    </contour>
  </outline>
</glyph>
<glyph name="paragraph" format="1">
  <advance width="1071"/>
  <unicode hex="00B6"/>
  <outline>
    <contour>
      <point x="544" y="1" type="line"/>
      <point x="689" y="1" type="line"/>
      <point x="689" y="1105" type="line"/>
      <point x="797" y="1105" type="line"/>
      <point x="796" y="1" type="line"/>
      <point x="941" y="1" type="line"/>
      <point x="941" y="1241" type="line"/>
      <point x="547" y="1241" type="line" smooth="yes"/>
      <point x="288" y="1241"/>
      <point x="96" y="1210"/>
      <point x="96" y="918" type="curve" smooth="yes"/>
      <point x="96" y="661"/>
      <point x="294" y="593"/>
      <point x="508" y="591" type="curve" smooth="yes"/>
      <point x="558" y="591"/>
      <point x="541" y="591"/>
      <point x="544" y="591" type="curve"/>
    </contour>
  </outline>
</glyph>
<glyph name="cedilla" format="1">
  <advance width="476"/>
  <unicode hex="00B8"/>
  <outline>
    <contour>
      <point x="353" y="-357" type="curve"/>
      <point x="365" y="-292" type="line"/>
      <point x="297" y="-278"/>
      <point x="234" y="-226"/>
      <point x="234" y="-182" type="curve" smooth="yes"/>
      <point x="234" y="-153"/>
      <point x="261" y="-127"/>
      <point x="332" y="-118" type="curve"/>
      <point x="332" y="0" type="line"/>
      <point x="251" y="0" type="line"/>
      <point x="251" y="-71" type="line"/>
      <point x="149" y="-100"/>
      <point x="115" y="-150"/>
      <point x="115" y="-200" type="curve" smooth="yes"/>
      <point x="115" y="-278"/>
      <point x="228" y="-357"/>
    </contour>
    <contour>
      <point x="240" y="0" type="move" name="_bottom"/>
    </contour>
  </outline>
</glyph>
<glyph name="questiondown" format="1">
  <advance width="1036"/>
  <unicode hex="00BF"/>
  <outline>
    <contour>
      <point x="509" y="-404" type="curve" smooth="yes"/>
      <point x="682" y="-404"/>
      <point x="858" y="-296"/>
      <point x="876" y="-280" type="curve"/>
      <point x="793" y="-100" type="line"/>
      <point x="771" y="-116"/>
      <point x="639" y="-189"/>
      <point x="536" y="-189" type="curve" smooth="yes"/>
      <point x="448" y="-189"/>
      <point x="383" y="-138"/>
      <point x="383" y="-41" type="curve" smooth="yes"/>
      <point x="383" y="63"/>
      <point x="442" y="150"/>
      <point x="731" y="477" type="curve"/>
      <point x="548" y="477" type="line"/>
      <point x="238" y="215"/>
      <point x="131" y="74"/>
      <point x="131" y="-77" type="curve" smooth="yes"/>
      <point x="131" y="-278"/>
      <point x="276" y="-404"/>
    </contour>
    <component base="period" xOffset="918" yOffset="871" xScale="-1" yScale="-1"/>
  </outline>
</glyph>
<glyph name="AE" format="1">
  <advance width="1351"/>
  <unicode hex="00C6"/>
  <outline>
    <contour>
      <point x="64" y="0" type="line"/>
      <point x="332" y="0" type="line"/>
      <point x="457" y="293" type="line"/>
      <point x="708" y="293" type="line"/>
      <point x="709" y="128" type="line"/>
      <point x="859" y="128" type="line"/>
      <point x="649" y="1241" type="line"/>
    </contour>
    <contour>
      <point x="506" y="450" type="line"/>
      <point x="651" y="810" type="line"/>
      <point x="739" y="450" type="line"/>
    </contour>
    <component base="E" xOffset="493"/>
    <contour>
      <point x="676" y="1241" type="move" name="top"/>
    </contour>
  </outline>
</glyph>
<glyph name="multiply" format="1">
  <advance width="927"/>
  <unicode hex="00D7"/>
  <outline>
    <contour>
      <point x="314" y="288" type="line"/>
      <point x="482" y="457" type="line"/>
      <point x="652" y="288" type="line"/>
      <point x="769" y="405" type="line"/>
      <point x="600" y="574" type="line"/>
      <point x="769" y="743" type="line"/>
      <point x="652" y="860" type="line"/>
      <point x="482" y="691" type="line"/>
      <point x="314" y="860" type="line"/>
      <point x="196" y="743" type="line"/>
      <point x="366" y="574" type="line"/>
      <point x="197" y="405" type="line"/>
    </contour>
  </outline>
</glyph>
<glyph name="eth" format="1">
  <advance width="1038"/>
  <unicode hex="00F0"/>
  <outline>
    <contour>
      <point x="508" y="-22" type="curve" smooth="yes"/>
      <point x="770" y="-22"/>
      <point x="963" y="160"/>
      <point x="963" y="390" type="curve" smooth="yes"/>
      <point x="963" y="554"/>
      <point x="899" y="668"/>
      <point x="779" y="834" type="curve" smooth="yes"/>
      <point x="703" y="939"/>
      <point x="442" y="1241"/>
      <point x="442" y="1241" type="curve"/>
      <point x="181" y="1241" type="line"/>
      <point x="561" y="777" type="line"/>
      <point x="538" y="786"/>
      <point x="496" y="797"/>
      <point x="455" y="797" type="curve" smooth="yes"/>
      <point x="248" y="797"/>
      <point x="56" y="631"/>
      <point x="56" y="393" type="curve" smooth="yes"/>
      <point x="56" y="143"/>
      <point x="260" y="-22"/>
    </contour>
    <contour>
      <point x="515" y="166" type="curve" smooth="yes"/>
      <point x="374" y="166"/>
      <point x="283" y="275"/>
      <point x="283" y="393" type="curve" smooth="yes"/>
      <point x="283" y="517"/>
      <point x="371" y="619"/>
      <point x="508" y="619" type="curve" smooth="yes"/>
      <point x="654" y="619"/>
      <point x="732" y="504"/>
      <point x="732" y="386" type="curve" smooth="yes"/>
      <point x="732" y="274"/>
      <point x="656" y="166"/>
    </contour>
    <contour>
      <point x="279" y="870" type="line"/>
      <point x="731" y="1182" type="line"/>
      <point x="680" y="1246" type="line"/>
      <point x="228" y="934" type="line"/>
    </contour>
  </outline>
</glyph>
<glyph name="oslash" format="1">
  <advance width="1146"/>
  <unicode hex="00F8"/>
  <outline>
    <contour>
      <point x="272" y="-94" type="line"/>
      <point x="202" y="-46" type="line"/>
      <point x="874" y="952" type="line"/>
      <point x="943" y="904" type="line"/>
    </contour>
    <component base="o"/>
    <contour>
      <point x="573" y="867" type="move" name="top"/>
    </contour>
  </outline>
</glyph>
<glyph name="thorn" format="1">
  <advance width="1086"/>
  <unicode hex="00FE"/>
  <outline>
    <contour>
      <point x="134" y="-379" type="line"/>
      <point x="368" y="-373" type="line"/>
      <point x="368" y="10" type="line"/>
      <point x="368" y="10"/>
      <point x="444" y="-13"/>
      <point x="536" y="-13" type="curve" smooth="yes"/>
      <point x="825" y="-13"/>
      <point x="999" y="172"/>
      <point x="999" y="439" type="curve" smooth="yes"/>
      <point x="999" y="690"/>
      <point x="843" y="887"/>
      <point x="601" y="887" type="curve" smooth="yes"/>
      <point x="492" y="887"/>
      <point x="414" y="849"/>
      <point x="368" y="807" type="curve"/>
      <point x="368" y="1241" type="line"/>
      <point x="134" y="1241" type="line"/>
    </contour>
    <contour>
      <point x="496" y="159" type="curve" smooth="yes"/>
      <point x="438" y="159"/>
      <point x="389" y="174"/>
      <point x="368" y="176" type="curve"/>
      <point x="368" y="647" type="line"/>
      <point x="407" y="667"/>
      <point x="470" y="698"/>
      <point x="538" y="698" type="curve" smooth="yes"/>
      <point x="680" y="698"/>
      <point x="770" y="602"/>
      <point x="770" y="441" type="curve" smooth="yes"/>
      <point x="770" y="265"/>
      <point x="676" y="159"/>
    </contour>
  </outline>
</glyph>
<glyph name="dotlessi" format="1">
  <advance width="537"/>
  <unicode hex="0131"/>
  <outline>
    <contour>
      <point x="154" y="0" type="line"/>
      <point x="385" y="0" type="line"/>
      <point x="385" y="861" type="line"/>
      <point x="154" y="861" type="line"/>
    </contour>
    <contour>
      <point x="269" y="867" type="move" name="top"/>
    </contour>
    <contour>
      <point x="483" y="10" type="move" name="ogonek"/>
    </contour>
  </outline>
</glyph>
<glyph name="kgreenlandic" format="1">
  <advance width="1019"/>
  <unicode hex="0138"/>
  <outline>
    <contour>
      <point x="134" y="0" type="line"/>
      <point x="367" y="0" type="line"/>
      <point x="367" y="378" type="line"/>
      <point x="728" y="0" type="line"/>
      <point x="1026" y="0" type="line"/>
      <point x="600" y="443" type="line"/>
      <point x="973" y="860" type="line"/>
      <point x="683" y="860" type="line"/>
      <point x="367" y="497" type="line"/>
      <point x="367" y="860" type="line"/>
      <point x="134" y="860" type="line"/>
    </contour>
  </outline>
</glyph>
<glyph name="OE" format="1">
  <advance width="1972"/>
  <unicode hex="0152"/>
  <outline>
    <contour>
      <point x="734" y="-33" type="curve" smooth="yes"/>
      <point x="903" y="-33"/>
      <point x="1052" y="23"/>
      <point x="1154" y="137" type="curve"/>
      <point x="1154" y="0" type="line"/>
      <point x="1886" y="0" type="line"/>
      <point x="1886" y="220" type="line"/>
      <point x="1398" y="220" type="line"/>
      <point x="1398" y="534" type="line"/>
      <point x="1811" y="534" type="line"/>
      <point x="1811" y="744" type="line"/>
      <point x="1400" y="744" type="line"/>
      <point x="1400" y="1028" type="line"/>
      <point x="1876" y="1028" type="line"/>
      <point x="1876" y="1241" type="line"/>
      <point x="1154" y="1241" type="line"/>
      <point x="1154" y="1105" type="line"/>
      <point x="1052" y="1219"/>
      <point x="902" y="1275"/>
      <point x="733" y="1275" type="curve" smooth="yes"/>
      <point x="400" y="1275"/>
      <point x="81" y="1058"/>
      <point x="81" y="620" type="curve" smooth="yes"/>
      <point x="81" y="184"/>
      <point x="400" y="-33"/>
    </contour>
    <contour>
      <point x="746" y="182" type="curve" smooth="yes"/>
      <point x="541" y="182"/>
      <point x="340" y="328"/>
      <point x="340" y="620" type="curve" smooth="yes"/>
      <point x="340" y="912"/>
      <point x="537" y="1060"/>
      <point x="746" y="1060" type="curve" smooth="yes"/>
      <point x="955" y="1060"/>
      <point x="1154" y="912"/>
      <point x="1154" y="619" type="curve" smooth="yes"/>
      <point x="1154" y="329"/>
      <point x="947" y="182"/>
    </contour>
    <contour>
      <point x="986" y="1241" type="move" name="top"/>
    </contour>
  </outline>
</glyph>
<glyph name="oe" format="1">
  <advance width="1727"/>
  <unicode hex="0153"/>
  <outline>
    <contour>
      <point x="1065" y="540" type="line"/>
      <point x="1083" y="618"/>
      <point x="1151" y="713"/>
      <point x="1276" y="713" type="curve" smooth="yes"/>
      <point x="1373" y="713"/>
      <point x="1438" y="649"/>
      <point x="1449" y="540" type="curve"/>
    </contour>
    <contour>
      <point x="561" y="-22" type="curve" smooth="yes"/>
      <point x="724" y="-22"/>
      <point x="859" y="46"/>
      <point x="933" y="164" type="curve"/>
      <point x="1018" y="39"/>
      <point x="1163" y="-24"/>
      <point x="1328" y="-24" type="curve" smooth="yes"/>
      <point x="1443" y="-24"/>
      <point x="1542" y="7"/>
      <point x="1625" y="56" type="curve"/>
      <point x="1625" y="249" type="line"/>
      <point x="1562" y="206"/>
      <point x="1468" y="163"/>
      <point x="1344" y="163" type="curve" smooth="yes"/>
      <point x="1207" y="163"/>
      <point x="1081" y="222"/>
      <point x="1054" y="389" type="curve"/>
      <point x="1642" y="389" type="line"/>
      <point x="1642" y="442" type="line" smooth="yes"/>
      <point x="1642" y="683"/>
      <point x="1527" y="885"/>
      <point x="1251" y="885" type="curve" smooth="yes"/>
      <point x="1104" y="885"/>
      <point x="992" y="816"/>
      <point x="926" y="709" type="curve"/>
      <point x="850" y="821"/>
      <point x="717" y="885"/>
      <point x="562" y="885" type="curve" smooth="yes"/>
      <point x="299" y="885"/>
      <point x="87" y="708"/>
      <point x="87" y="431" type="curve" smooth="yes"/>
      <point x="87" y="154"/>
      <point x="299" y="-22"/>
    </contour>
    <contour>
      <point x="567" y="166" type="curve" smooth="yes"/>
      <point x="399" y="166"/>
      <point x="312" y="293"/>
      <point x="312" y="431" type="curve" smooth="yes"/>
      <point x="312" y="563"/>
      <point x="399" y="696"/>
      <point x="567" y="696" type="curve" smooth="yes"/>
      <point x="736" y="696"/>
      <point x="821" y="563"/>
      <point x="821" y="430" type="curve" smooth="yes"/>
      <point x="821" y="297"/>
      <point x="736" y="166"/>
    </contour>
    <contour>
      <point x="864" y="867" type="move" name="top"/>
    </contour>
  </outline>
</glyph>
<glyph name="florin" format="1">
  <advance width="1019"/>
  <unicode hex="0192"/>
  <outline>
    <contour>
      <point x="276" y="-323" type="curve" smooth="yes"/>
      <point x="446" y="-323"/>
      <point x="559" y="-213"/>
      <point x="580" y="0" type="curve" smooth="yes"/>
      <point x="644" y="631" type="line"/>
      <point x="830" y="631" type="line"/>
      <point x="843" y="764" type="line"/>
      <point x="659" y="764" type="line"/>
      <point x="673" y="927" type="line" smooth="yes"/>
      <point x="683" y="1040"/>
      <point x="749" y="1073"/>
      <point x="825" y="1073" type="curve" smooth="yes"/>
      <point x="866" y="1073"/>
      <point x="901" y="1064"/>
      <point x="936" y="1052" type="curve"/>
      <point x="953" y="1215" type="line"/>
      <point x="938" y="1220"/>
      <point x="861" y="1251"/>
      <point x="775" y="1251" type="curve" smooth="yes"/>
      <point x="568" y="1251"/>
      <point x="455" y="1132"/>
      <point x="438" y="927" type="curve" smooth="yes"/>
      <point x="424" y="764" type="line"/>
      <point x="276" y="764" type="line"/>
      <point x="263" y="631" type="line"/>
      <point x="411" y="631" type="line"/>
      <point x="346" y="-14" type="line" smooth="yes"/>
      <point x="336" y="-120"/>
      <point x="284" y="-150"/>
      <point x="219" y="-150" type="curve" smooth="yes"/>
      <point x="161" y="-150"/>
      <point x="105" y="-124"/>
      <point x="83" y="-115" type="curve"/>
      <point x="66" y="-272" type="line"/>
      <point x="143" y="-306"/>
      <point x="210" y="-323"/>
    </contour>
  </outline>
</glyph>
<glyph name="uni0237" format="1">
  <advance width="565"/>
  <unicode hex="0237"/>
  <outline>
    <contour>
      <point x="47" y="-340" type="line"/>
      <point x="365" y="-336"/>
      <point x="416" y="-157"/>
      <point x="416" y="-36" type="curve" smooth="yes"/>
      <point x="416" y="861" type="line"/>
      <point x="182" y="861" type="line"/>
      <point x="182" y="-12" type="line" smooth="yes"/>
      <point x="182" y="-112"/>
      <point x="116" y="-129"/>
      <point x="38" y="-143" type="curve" smooth="yes"/>
      <point x="35" y="-144"/>
      <point x="4" y="-151"/>
      <point x="1" y="-151" type="curve"/>
    </contour>
    <contour>
      <point x="283" y="867" type="move" name="top"/>
    </contour>
  </outline>
</glyph>
<glyph name="breve" format="1">
  <advance width="781"/>
  <unicode hex="02D8"/>
  <outline>
    <contour>
      <point x="390" y="128" type="curve" smooth="yes"/>
      <point x="164" y="128"/>
      <point x="142" y="335"/>
      <point x="142" y="335" type="curve"/>
      <point x="248" y="360" type="line"/>
      <point x="248" y="360"/>
      <point x="272" y="244"/>
      <point x="390" y="244" type="curve" smooth="yes"/>
      <point x="508" y="244"/>
      <point x="532" y="360"/>
      <point x="532" y="360" type="curve"/>
      <point x="639" y="335" type="line"/>
      <point x="639" y="335"/>
      <point x="617" y="128"/>
    </contour>
    <contour>
      <point x="390" y="867" type="move" name="_top"/>
    </contour>
  </outline>
</glyph>
<glyph name="dotaccent" format="1">
  <advance width="584"/>
  <unicode hex="02D9"/>
  <outline>
    <component base="period" xOffset="36" yOffset="188"/>
    <contour>
      <point x="136" y="867" type="move" name="_top"/>
    </contour>
  </outline>
</glyph>
<glyph name="ring" format="1">
  <advance width="757"/>
  <unicode hex="02DA"/>
  <outline>
    <contour>
      <point x="377" y="142" type="curve" smooth="yes"/>
      <point x="257" y="142"/>
      <point x="146" y="222"/>
      <point x="146" y="363" type="curve" smooth="yes"/>
      <point x="146" y="507"/>
      <point x="257" y="589"/>
      <point x="378" y="589" type="curve" smooth="yes"/>
      <point x="492" y="589"/>
      <point x="611" y="507"/>
      <point x="611" y="363" type="curve" smooth="yes"/>
      <point x="611" y="223"/>
      <point x="499" y="142"/>
    </contour>
    <contour>
      <point x="377" y="229" type="curve" smooth="yes"/>
      <point x="465" y="229"/>
      <point x="509" y="295"/>
      <point x="509" y="362" type="curve" smooth="yes"/>
      <point x="509" y="430"/>
      <point x="463" y="498"/>
      <point x="377" y="498" type="curve" smooth="yes"/>
      <point x="291" y="498"/>
      <point x="245" y="430"/>
      <point x="245" y="363" type="curve" smooth="yes"/>
      <point x="245" y="290"/>
      <point x="289" y="229"/>
    </contour>
    <contour>
      <point x="379" y="867" type="move" name="_top"/>
    </contour>
  </outline>
</glyph>
<glyph name="ogonek" format="1">
  <advance width="451"/>
  <unicode hex="02DB"/>
  <outline>
    <contour>
      <point x="264" y="-404" type="curve"/>
      <point x="333" y="-346" type="line"/>
      <point x="270" y="-293"/>
      <point x="245" y="-241"/>
      <point x="245" y="-189" type="curve" smooth="yes"/>
      <point x="245" y="-126"/>
      <point x="283" y="-64"/>
      <point x="333" y="0" type="curve"/>
      <point x="274" y="0" type="line"/>
      <point x="170" y="-88"/>
      <point x="113" y="-172"/>
      <point x="113" y="-244" type="curve" smooth="yes"/>
      <point x="113" y="-312"/>
      <point x="164" y="-367"/>
    </contour>
    <contour>
      <point x="333" y="10" type="move" name="_ogonek"/>
    </contour>
  </outline>
</glyph>
<glyph name="hungarumlaut" format="1">
  <advance width="781"/>
  <unicode hex="02DD"/>
  <outline>
    <component base="acute" xOffset="50"/>
    <component base="acute" xOffset="329"/>
    <contour>
      <point x="440" y="867" type="move" name="_top"/>
    </contour>
  </outline>
</glyph>
<glyph name="uni0311" format="1">
  <advance width="781"/>
  <unicode hex="0311"/>
  <outline>
    <contour>
      <point x="248" y="128" type="curve"/>
      <point x="142" y="153" type="line"/>
      <point x="142" y="153"/>
      <point x="164" y="360"/>
      <point x="390" y="360" type="curve" smooth="yes"/>
      <point x="617" y="360"/>
      <point x="639" y="153"/>
      <point x="639" y="153" type="curve"/>
      <point x="532" y="128" type="line"/>
      <point x="532" y="128"/>
      <point x="508" y="245"/>
      <point x="390" y="245" type="curve" smooth="yes"/>
      <point x="272" y="245"/>
      <point x="248" y="128"/>
    </contour>
  </outline>
</glyph>
<glyph name="uni0326" format="1">
  <advance width="500"/>
  <unicode hex="0326"/>
  <outline>
    <contour>
      <point x="171" y="-510" type="curve" smooth="yes"/>
      <point x="208" y="-510"/>
      <point x="249" y="-485"/>
      <point x="274" y="-423" type="curve" smooth="yes"/>
      <point x="396" y="-106" type="line" smooth="yes"/>
      <point x="399" y="-100"/>
      <point x="400" y="-93"/>
      <point x="400" y="-87" type="curve" smooth="yes"/>
      <point x="400" y="-67"/>
      <point x="384" y="-53"/>
      <point x="366" y="-53" type="curve" smooth="yes"/>
      <point x="355" y="-53"/>
      <point x="342" y="-59"/>
      <point x="331" y="-73" type="curve" smooth="yes"/>
      <point x="118" y="-346" type="line"/>
      <point x="95" y="-374"/>
      <point x="85" y="-401"/>
      <point x="85" y="-425" type="curve" smooth="yes"/>
      <point x="85" y="-474"/>
      <point x="126" y="-510"/>
    </contour>
    <contour>
      <point x="243" y="0" type="move" name="_bottom"/>
    </contour>
  </outline>
</glyph>
<glyph name="mu" format="1">
  <advance width="1135"/>
  <unicode hex="03BC"/>
  <outline>
    <contour>
      <point x="122" y="-248" type="line"/>
      <point x="360" y="-248" type="line"/>
      <point x="360" y="236" type="line"/>
      <point x="122" y="299" type="line"/>
    </contour>
    <component base="u" xOffset="1"/>
  </outline>
</glyph>
<glyph name="perthousand" format="1">
  <advance width="2049"/>
  <unicode hex="2030"/>
  <outline>
    <contour>
      <point x="299" y="0" type="line"/>
      <point x="380" y="0" type="line"/>
      <point x="1101" y="1241" type="line"/>
      <point x="1018" y="1241" type="line"/>
    </contour>
    <component base="o" xOffset="1368" yOffset="11" xScale="0.60" yScale="0.60"/>
    <component base="o" xOffset="732" yOffset="11" xScale="0.60" yScale="0.60"/>
    <component base="o" xOffset="5" yOffset="737" xScale="0.60" yScale="0.60"/>
  </outline>
</glyph>
<glyph name="guilsinglright" format="1">
  <advance width="571"/>
  <unicode hex="203A"/>
  <outline>
    <contour>
      <point x="99" y="168" type="curve" smooth="yes"/>
      <point x="107" y="168"/>
      <point x="116" y="170"/>
      <point x="127" y="174" type="curve"/>
      <point x="421" y="405" type="line"/>
      <point x="468" y="434"/>
      <point x="493" y="476"/>
      <point x="493" y="517" type="curve" smooth="yes"/>
      <point x="493" y="558"/>
      <point x="469" y="599"/>
      <point x="421" y="629" type="curve"/>
      <point x="127" y="860" type="line"/>
      <point x="116" y="865"/>
      <point x="107" y="867"/>
      <point x="99" y="867" type="curve" smooth="yes"/>
      <point x="77" y="867"/>
      <point x="63" y="852"/>
      <point x="63" y="834" type="curve" smooth="yes"/>
      <point x="63" y="822"/>
      <point x="69" y="810"/>
      <point x="81" y="798" type="curve"/>
      <point x="279" y="517" type="line"/>
      <point x="81" y="237" type="line"/>
      <point x="69" y="224"/>
      <point x="63" y="212"/>
      <point x="63" y="200" type="curve" smooth="yes"/>
      <point x="63" y="182"/>
      <point x="77" y="168"/>
    </contour>
  </outline>
</glyph>
<glyph name="minus" format="1">
  <advance width="1035"/>
  <unicode hex="2212"/>
  <outline>
    <contour>
      <point x="153" y="502" type="line"/>
      <point x="881" y="502" type="line"/>
      <point x="881" y="649" type="line"/>
      <point x="153" y="649" type="line"/>
    </contour>
  </outline>
</glyph>
<glyph name="approxequal" format="1">
  <advance width="1000"/>
  <unicode hex="2248"/>
  <outline>
    <contour>
      <point x="716" y="276" type="curve" smooth="yes"/>
      <point x="866" y="276"/>
      <point x="911" y="358"/>
      <point x="914" y="534" type="curve"/>
      <point x="794" y="534" type="line"/>
      <point x="785" y="464"/>
      <point x="773" y="410"/>
      <point x="712" y="410" type="curve" smooth="yes"/>
      <point x="614" y="410"/>
      <point x="448" y="548"/>
      <point x="301" y="548" type="curve" smooth="yes"/>
      <point x="153" y="548"/>
      <point x="91" y="465"/>
      <point x="89" y="290" type="curve"/>
      <point x="208" y="290" type="line"/>
      <point x="217" y="367"/>
      <point x="234" y="414"/>
      <point x="305" y="414" type="curve" smooth="yes"/>
      <point x="410" y="414"/>
      <point x="578" y="276"/>
    </contour>
    <contour>
      <point x="716" y="602" type="curve" smooth="yes"/>
      <point x="866" y="602"/>
      <point x="911" y="684"/>
      <point x="914" y="859" type="curve"/>
      <point x="794" y="859" type="line"/>
      <point x="785" y="790"/>
      <point x="773" y="736"/>
      <point x="712" y="736" type="curve" smooth="yes"/>
      <point x="614" y="736"/>
      <point x="448" y="873"/>
      <point x="301" y="873" type="curve" smooth="yes"/>
      <point x="153" y="873"/>
      <point x="91" y="791"/>
      <point x="89" y="616" type="curve"/>
      <point x="208" y="616" type="line"/>
      <point x="217" y="693"/>
      <point x="234" y="740"/>
      <point x="305" y="740" type="curve" smooth="yes"/>
      <point x="410" y="740"/>
      <point x="578" y="602"/>
    </contour>
  </outline>
</glyph>
<glyph name="lessequal" format="1">
  <advance width="1056"/>
  <unicode hex="2264"/>
  <outline>
    <contour>
      <point x="139" y="0" type="line"/>
      <point x="945" y="0" type="line"/>
      <point x="945" y="143" type="line"/>
      <point x="139" y="143" type="line"/>
    </contour>
    <contour>
      <point x="945" y="226" type="line"/>
      <point x="945" y="440" type="line"/>
      <point x="512" y="615" type="line"/>
      <point x="945" y="799" type="line"/>
      <point x="945" y="997" type="line"/>
      <point x="109" y="614" type="line"/>
    </contour>
  </outline>
</glyph>
<glyph name="greaterequal" format="1">
  <advance width="1056"/>
  <unicode hex="2265"/>
  <outline>
    <contour>
      <point x="128" y="0" type="line"/>
      <point x="933" y="0" type="line"/>
      <point x="933" y="143" type="line"/>
      <point x="128" y="143" type="line"/>
    </contour>
    <contour>
      <point x="127" y="997" type="line"/>
      <point x="127" y="800" type="line"/>
      <point x="560" y="622" type="line"/>
      <point x="127" y="440" type="line"/>
      <point x="127" y="226" type="line"/>
      <point x="962" y="623" type="line"/>
    </contour>
  </outline>
</glyph>
